<mxfile host="app.diagrams.net" modified="2023-09-05T16:58:12.124Z" agent="Mozilla/5.0 (Windows NT 10.0; Win64; x64; rv:109.0) Gecko/20100101 Firefox/115.0 micromessenger" etag="s7A7PWx9PQTngDdJNhPw" version="21.7.2" type="github">
  <diagram name="第 1 页" id="kmuNRWYoH8cKrCsX6FD8">
    <mxGraphModel dx="3243" dy="1114" grid="1" gridSize="10" guides="1" tooltips="1" connect="1" arrows="1" fold="1" page="1" pageScale="1" pageWidth="1169" pageHeight="1654" math="0" shadow="0">
      <root>
        <mxCell id="0" />
        <mxCell id="1" parent="0" />
        <mxCell id="2" value="" style="rounded=1;whiteSpace=wrap;html=1;" parent="1" vertex="1">
          <mxGeometry x="160" y="230" width="60" height="100" as="geometry" />
        </mxCell>
        <mxCell id="3" style="edgeStyle=orthogonalEdgeStyle;rounded=0;orthogonalLoop=1;jettySize=auto;html=1;entryX=0;entryY=0.5;entryDx=0;entryDy=0;" parent="1" source="4" target="6" edge="1">
          <mxGeometry relative="1" as="geometry" />
        </mxCell>
        <mxCell id="4" value="raw_ptr" style="rounded=1;whiteSpace=wrap;html=1;" parent="1" vertex="1">
          <mxGeometry x="165" y="270" width="50" height="50" as="geometry" />
        </mxCell>
        <mxCell id="5" value="&lt;div&gt;Box&lt;/div&gt;&lt;div&gt;1&lt;/div&gt;" style="text;html=1;align=center;verticalAlign=middle;resizable=0;points=[];autosize=1;strokeColor=none;fillColor=none;" parent="1" vertex="1">
          <mxGeometry x="170" y="225" width="40" height="40" as="geometry" />
        </mxCell>
        <mxCell id="6" value="" style="rounded=1;whiteSpace=wrap;html=1;" parent="1" vertex="1">
          <mxGeometry x="270" y="180" width="70" height="160" as="geometry" />
        </mxCell>
        <mxCell id="7" value="" style="rounded=1;whiteSpace=wrap;html=1;" parent="1" vertex="1">
          <mxGeometry x="275" y="240" width="60" height="100" as="geometry" />
        </mxCell>
        <mxCell id="8" style="edgeStyle=orthogonalEdgeStyle;rounded=0;orthogonalLoop=1;jettySize=auto;html=1;entryX=0;entryY=0.5;entryDx=0;entryDy=0;" parent="1" source="9" target="13" edge="1">
          <mxGeometry relative="1" as="geometry" />
        </mxCell>
        <mxCell id="9" value="raw_ptr" style="rounded=1;whiteSpace=wrap;html=1;" parent="1" vertex="1">
          <mxGeometry x="280" y="280" width="50" height="50" as="geometry" />
        </mxCell>
        <mxCell id="10" value="&lt;div&gt;Box&lt;/div&gt;2" style="text;html=1;align=center;verticalAlign=middle;resizable=0;points=[];autosize=1;strokeColor=none;fillColor=none;" parent="1" vertex="1">
          <mxGeometry x="285" y="235" width="40" height="40" as="geometry" />
        </mxCell>
        <mxCell id="11" value="" style="line;strokeWidth=2;html=1;" parent="1" vertex="1">
          <mxGeometry x="270" y="230" width="70" height="10" as="geometry" />
        </mxCell>
        <mxCell id="12" value="Value" style="text;html=1;strokeColor=none;fillColor=none;align=center;verticalAlign=middle;whiteSpace=wrap;rounded=0;" parent="1" vertex="1">
          <mxGeometry x="275" y="190" width="60" height="30" as="geometry" />
        </mxCell>
        <mxCell id="13" value="" style="rounded=1;whiteSpace=wrap;html=1;" parent="1" vertex="1">
          <mxGeometry x="400" y="180" width="70" height="160" as="geometry" />
        </mxCell>
        <mxCell id="14" value="" style="rounded=1;whiteSpace=wrap;html=1;" parent="1" vertex="1">
          <mxGeometry x="405" y="240" width="60" height="100" as="geometry" />
        </mxCell>
        <mxCell id="15" style="edgeStyle=orthogonalEdgeStyle;rounded=0;orthogonalLoop=1;jettySize=auto;html=1;entryX=0;entryY=0.5;entryDx=0;entryDy=0;" parent="1" source="16" target="20" edge="1">
          <mxGeometry relative="1" as="geometry" />
        </mxCell>
        <mxCell id="16" value="raw_ptr" style="rounded=1;whiteSpace=wrap;html=1;" parent="1" vertex="1">
          <mxGeometry x="410" y="280" width="50" height="50" as="geometry" />
        </mxCell>
        <mxCell id="17" value="&lt;div&gt;Box&lt;/div&gt;&lt;div&gt;3&lt;/div&gt;" style="text;html=1;align=center;verticalAlign=middle;resizable=0;points=[];autosize=1;strokeColor=none;fillColor=none;" parent="1" vertex="1">
          <mxGeometry x="415" y="235" width="40" height="40" as="geometry" />
        </mxCell>
        <mxCell id="18" value="" style="line;strokeWidth=2;html=1;" parent="1" vertex="1">
          <mxGeometry x="400" y="230" width="70" height="10" as="geometry" />
        </mxCell>
        <mxCell id="19" value="Value" style="text;html=1;strokeColor=none;fillColor=none;align=center;verticalAlign=middle;whiteSpace=wrap;rounded=0;" parent="1" vertex="1">
          <mxGeometry x="405" y="190" width="60" height="30" as="geometry" />
        </mxCell>
        <mxCell id="20" value="" style="rounded=1;whiteSpace=wrap;html=1;" parent="1" vertex="1">
          <mxGeometry x="540" y="180" width="70" height="160" as="geometry" />
        </mxCell>
        <mxCell id="21" value="" style="rounded=1;whiteSpace=wrap;html=1;" parent="1" vertex="1">
          <mxGeometry x="545" y="240" width="60" height="100" as="geometry" />
        </mxCell>
        <mxCell id="22" style="edgeStyle=orthogonalEdgeStyle;rounded=0;orthogonalLoop=1;jettySize=auto;html=1;entryX=0;entryY=0.5;entryDx=0;entryDy=0;" parent="1" source="23" target="27" edge="1">
          <mxGeometry relative="1" as="geometry" />
        </mxCell>
        <mxCell id="23" value="raw_ptr" style="rounded=1;whiteSpace=wrap;html=1;" parent="1" vertex="1">
          <mxGeometry x="550" y="280" width="50" height="50" as="geometry" />
        </mxCell>
        <mxCell id="24" value="&lt;div&gt;Box&lt;/div&gt;4" style="text;html=1;align=center;verticalAlign=middle;resizable=0;points=[];autosize=1;strokeColor=none;fillColor=none;" parent="1" vertex="1">
          <mxGeometry x="555" y="235" width="40" height="40" as="geometry" />
        </mxCell>
        <mxCell id="25" value="" style="line;strokeWidth=2;html=1;" parent="1" vertex="1">
          <mxGeometry x="540" y="230" width="70" height="10" as="geometry" />
        </mxCell>
        <mxCell id="26" value="Value" style="text;html=1;strokeColor=none;fillColor=none;align=center;verticalAlign=middle;whiteSpace=wrap;rounded=0;" parent="1" vertex="1">
          <mxGeometry x="545" y="190" width="60" height="30" as="geometry" />
        </mxCell>
        <mxCell id="27" value="" style="rounded=1;whiteSpace=wrap;html=1;" parent="1" vertex="1">
          <mxGeometry x="680" y="180" width="70" height="160" as="geometry" />
        </mxCell>
        <mxCell id="28" value="" style="rounded=1;whiteSpace=wrap;html=1;" parent="1" vertex="1">
          <mxGeometry x="685" y="240" width="60" height="100" as="geometry" />
        </mxCell>
        <mxCell id="29" style="edgeStyle=orthogonalEdgeStyle;rounded=0;orthogonalLoop=1;jettySize=auto;html=1;entryX=0;entryY=0.5;entryDx=0;entryDy=0;" parent="1" source="30" target="34" edge="1">
          <mxGeometry relative="1" as="geometry" />
        </mxCell>
        <mxCell id="30" value="raw_ptr" style="rounded=1;whiteSpace=wrap;html=1;" parent="1" vertex="1">
          <mxGeometry x="690" y="280" width="50" height="50" as="geometry" />
        </mxCell>
        <mxCell id="31" value="&lt;div&gt;Box&lt;/div&gt;5" style="text;html=1;align=center;verticalAlign=middle;resizable=0;points=[];autosize=1;strokeColor=none;fillColor=none;" parent="1" vertex="1">
          <mxGeometry x="695" y="235" width="40" height="40" as="geometry" />
        </mxCell>
        <mxCell id="32" value="" style="line;strokeWidth=2;html=1;" parent="1" vertex="1">
          <mxGeometry x="680" y="230" width="70" height="10" as="geometry" />
        </mxCell>
        <mxCell id="33" value="Value" style="text;html=1;strokeColor=none;fillColor=none;align=center;verticalAlign=middle;whiteSpace=wrap;rounded=0;" parent="1" vertex="1">
          <mxGeometry x="685" y="190" width="60" height="30" as="geometry" />
        </mxCell>
        <mxCell id="34" value="Empty" style="rounded=1;whiteSpace=wrap;html=1;" parent="1" vertex="1">
          <mxGeometry x="820" y="205" width="60" height="110" as="geometry" />
        </mxCell>
        <mxCell id="35" value="" style="rounded=1;whiteSpace=wrap;html=1;" parent="1" vertex="1">
          <mxGeometry x="-790" y="950" width="60" height="100" as="geometry" />
        </mxCell>
        <mxCell id="36" style="edgeStyle=orthogonalEdgeStyle;rounded=0;orthogonalLoop=1;jettySize=auto;html=1;entryX=0;entryY=0.5;entryDx=0;entryDy=0;" parent="1" source="37" target="39" edge="1">
          <mxGeometry relative="1" as="geometry" />
        </mxCell>
        <mxCell id="37" value="raw_ptr" style="rounded=1;whiteSpace=wrap;html=1;" parent="1" vertex="1">
          <mxGeometry x="-785" y="990" width="50" height="50" as="geometry" />
        </mxCell>
        <mxCell id="38" value="&lt;div&gt;Box&lt;/div&gt;" style="text;html=1;align=center;verticalAlign=middle;resizable=0;points=[];autosize=1;strokeColor=none;fillColor=none;" parent="1" vertex="1">
          <mxGeometry x="-780" y="950" width="40" height="30" as="geometry" />
        </mxCell>
        <mxCell id="39" value="" style="rounded=1;whiteSpace=wrap;html=1;" parent="1" vertex="1">
          <mxGeometry x="-680" y="900" width="70" height="160" as="geometry" />
        </mxCell>
        <mxCell id="40" value="" style="rounded=1;whiteSpace=wrap;html=1;" parent="1" vertex="1">
          <mxGeometry x="-675" y="960" width="60" height="100" as="geometry" />
        </mxCell>
        <mxCell id="41" style="edgeStyle=orthogonalEdgeStyle;rounded=0;orthogonalLoop=1;jettySize=auto;html=1;entryX=0;entryY=0.5;entryDx=0;entryDy=0;" parent="1" source="43" target="47" edge="1">
          <mxGeometry relative="1" as="geometry" />
        </mxCell>
        <mxCell id="42" style="edgeStyle=orthogonalEdgeStyle;rounded=0;orthogonalLoop=1;jettySize=auto;html=1;entryX=1;entryY=0.5;entryDx=0;entryDy=0;strokeColor=#3333FF;strokeWidth=1;" parent="1" source="43" target="72" edge="1">
          <mxGeometry relative="1" as="geometry" />
        </mxCell>
        <mxCell id="43" value="raw_ptr" style="rounded=1;whiteSpace=wrap;html=1;" parent="1" vertex="1">
          <mxGeometry x="-670" y="1000" width="50" height="50" as="geometry" />
        </mxCell>
        <mxCell id="44" value="&lt;div&gt;Box&lt;/div&gt;" style="text;html=1;align=center;verticalAlign=middle;resizable=0;points=[];autosize=1;strokeColor=none;fillColor=none;" parent="1" vertex="1">
          <mxGeometry x="-665" y="960" width="40" height="30" as="geometry" />
        </mxCell>
        <mxCell id="45" value="" style="line;strokeWidth=2;html=1;" parent="1" vertex="1">
          <mxGeometry x="-680" y="950" width="70" height="10" as="geometry" />
        </mxCell>
        <mxCell id="46" value="Value" style="text;html=1;strokeColor=none;fillColor=none;align=center;verticalAlign=middle;whiteSpace=wrap;rounded=0;" parent="1" vertex="1">
          <mxGeometry x="-675" y="910" width="60" height="30" as="geometry" />
        </mxCell>
        <mxCell id="47" value="" style="rounded=1;whiteSpace=wrap;html=1;" parent="1" vertex="1">
          <mxGeometry x="-550" y="900" width="70" height="160" as="geometry" />
        </mxCell>
        <mxCell id="48" value="" style="rounded=1;whiteSpace=wrap;html=1;" parent="1" vertex="1">
          <mxGeometry x="-545" y="960" width="60" height="100" as="geometry" />
        </mxCell>
        <mxCell id="49" style="edgeStyle=orthogonalEdgeStyle;rounded=0;orthogonalLoop=1;jettySize=auto;html=1;entryX=0;entryY=0.5;entryDx=0;entryDy=0;" parent="1" source="51" target="55" edge="1">
          <mxGeometry relative="1" as="geometry" />
        </mxCell>
        <mxCell id="50" style="edgeStyle=orthogonalEdgeStyle;rounded=0;orthogonalLoop=1;jettySize=auto;html=1;entryX=0.5;entryY=1;entryDx=0;entryDy=0;strokeColor=#3333FF;strokeWidth=1;" parent="1" source="51" target="40" edge="1">
          <mxGeometry relative="1" as="geometry" />
        </mxCell>
        <mxCell id="51" value="raw_ptr" style="rounded=1;whiteSpace=wrap;html=1;" parent="1" vertex="1">
          <mxGeometry x="-540" y="1000" width="50" height="50" as="geometry" />
        </mxCell>
        <mxCell id="52" value="&lt;div&gt;Box&lt;/div&gt;" style="text;html=1;align=center;verticalAlign=middle;resizable=0;points=[];autosize=1;strokeColor=none;fillColor=none;" parent="1" vertex="1">
          <mxGeometry x="-535" y="960" width="40" height="30" as="geometry" />
        </mxCell>
        <mxCell id="53" value="" style="line;strokeWidth=2;html=1;" parent="1" vertex="1">
          <mxGeometry x="-550" y="950" width="70" height="10" as="geometry" />
        </mxCell>
        <mxCell id="54" value="Value" style="text;html=1;strokeColor=none;fillColor=none;align=center;verticalAlign=middle;whiteSpace=wrap;rounded=0;" parent="1" vertex="1">
          <mxGeometry x="-545" y="910" width="60" height="30" as="geometry" />
        </mxCell>
        <mxCell id="55" value="" style="rounded=1;whiteSpace=wrap;html=1;" parent="1" vertex="1">
          <mxGeometry x="-410" y="900" width="70" height="160" as="geometry" />
        </mxCell>
        <mxCell id="56" value="" style="rounded=1;whiteSpace=wrap;html=1;" parent="1" vertex="1">
          <mxGeometry x="-405" y="960" width="60" height="100" as="geometry" />
        </mxCell>
        <mxCell id="57" style="edgeStyle=orthogonalEdgeStyle;rounded=0;orthogonalLoop=1;jettySize=auto;html=1;entryX=0;entryY=0.5;entryDx=0;entryDy=0;" parent="1" source="59" target="63" edge="1">
          <mxGeometry relative="1" as="geometry" />
        </mxCell>
        <mxCell id="58" style="edgeStyle=orthogonalEdgeStyle;rounded=0;orthogonalLoop=1;jettySize=auto;html=1;entryX=0.5;entryY=1;entryDx=0;entryDy=0;strokeColor=#3333FF;strokeWidth=1;" parent="1" source="59" target="48" edge="1">
          <mxGeometry relative="1" as="geometry" />
        </mxCell>
        <mxCell id="59" value="raw_ptr" style="rounded=1;whiteSpace=wrap;html=1;" parent="1" vertex="1">
          <mxGeometry x="-400" y="1000" width="50" height="50" as="geometry" />
        </mxCell>
        <mxCell id="60" value="&lt;div&gt;Box&lt;/div&gt;" style="text;html=1;align=center;verticalAlign=middle;resizable=0;points=[];autosize=1;strokeColor=none;fillColor=none;" parent="1" vertex="1">
          <mxGeometry x="-395" y="960" width="40" height="30" as="geometry" />
        </mxCell>
        <mxCell id="61" value="" style="line;strokeWidth=2;html=1;" parent="1" vertex="1">
          <mxGeometry x="-410" y="950" width="70" height="10" as="geometry" />
        </mxCell>
        <mxCell id="62" value="Value" style="text;html=1;strokeColor=none;fillColor=none;align=center;verticalAlign=middle;whiteSpace=wrap;rounded=0;" parent="1" vertex="1">
          <mxGeometry x="-405" y="910" width="60" height="30" as="geometry" />
        </mxCell>
        <mxCell id="63" value="" style="rounded=1;whiteSpace=wrap;html=1;" parent="1" vertex="1">
          <mxGeometry x="-270" y="900" width="70" height="160" as="geometry" />
        </mxCell>
        <mxCell id="64" value="" style="rounded=1;whiteSpace=wrap;html=1;" parent="1" vertex="1">
          <mxGeometry x="-265" y="960" width="60" height="100" as="geometry" />
        </mxCell>
        <mxCell id="65" style="edgeStyle=orthogonalEdgeStyle;rounded=0;orthogonalLoop=1;jettySize=auto;html=1;entryX=0;entryY=0.5;entryDx=0;entryDy=0;" parent="1" source="67" target="71" edge="1">
          <mxGeometry relative="1" as="geometry" />
        </mxCell>
        <mxCell id="66" style="edgeStyle=orthogonalEdgeStyle;rounded=0;orthogonalLoop=1;jettySize=auto;html=1;entryX=0.5;entryY=1;entryDx=0;entryDy=0;strokeColor=#3333FF;strokeWidth=1;" parent="1" source="67" target="56" edge="1">
          <mxGeometry relative="1" as="geometry" />
        </mxCell>
        <mxCell id="67" value="raw_ptr" style="rounded=1;whiteSpace=wrap;html=1;" parent="1" vertex="1">
          <mxGeometry x="-260" y="1000" width="50" height="50" as="geometry" />
        </mxCell>
        <mxCell id="68" value="&lt;div&gt;Box&lt;/div&gt;" style="text;html=1;align=center;verticalAlign=middle;resizable=0;points=[];autosize=1;strokeColor=none;fillColor=none;" parent="1" vertex="1">
          <mxGeometry x="-255" y="960" width="40" height="30" as="geometry" />
        </mxCell>
        <mxCell id="69" value="" style="line;strokeWidth=2;html=1;" parent="1" vertex="1">
          <mxGeometry x="-270" y="950" width="70" height="10" as="geometry" />
        </mxCell>
        <mxCell id="70" value="Value" style="text;html=1;strokeColor=none;fillColor=none;align=center;verticalAlign=middle;whiteSpace=wrap;rounded=0;" parent="1" vertex="1">
          <mxGeometry x="-265" y="910" width="60" height="30" as="geometry" />
        </mxCell>
        <mxCell id="71" value="Empty" style="rounded=1;whiteSpace=wrap;html=1;" parent="1" vertex="1">
          <mxGeometry x="-130" y="925" width="55" height="110" as="geometry" />
        </mxCell>
        <mxCell id="72" value="Empty" style="rounded=1;whiteSpace=wrap;html=1;" parent="1" vertex="1">
          <mxGeometry x="-790" y="1070" width="55" height="80" as="geometry" />
        </mxCell>
        <mxCell id="73" value="❌" style="text;whiteSpace=wrap;" parent="1" vertex="1">
          <mxGeometry x="-700" y="948.75" width="20" height="27.5" as="geometry" />
        </mxCell>
        <mxCell id="74" value="❌" style="text;whiteSpace=wrap;" parent="1" vertex="1">
          <mxGeometry x="-570" y="950" width="20" height="30" as="geometry" />
        </mxCell>
        <mxCell id="75" value="❌" style="text;whiteSpace=wrap;" parent="1" vertex="1">
          <mxGeometry x="-431" y="950" width="20" height="30" as="geometry" />
        </mxCell>
        <mxCell id="76" value="❌" style="text;whiteSpace=wrap;" parent="1" vertex="1">
          <mxGeometry x="-290" y="950" width="20" height="25" as="geometry" />
        </mxCell>
        <mxCell id="77" value="❌" style="text;whiteSpace=wrap;" parent="1" vertex="1">
          <mxGeometry x="-155" y="950" width="20" height="25" as="geometry" />
        </mxCell>
        <mxCell id="78" value="" style="edgeStyle=orthogonalEdgeStyle;rounded=0;orthogonalLoop=1;jettySize=auto;html=1;" parent="1" target="38" edge="1">
          <mxGeometry relative="1" as="geometry">
            <mxPoint x="-760" y="890" as="sourcePoint" />
          </mxGeometry>
        </mxCell>
        <mxCell id="79" style="edgeStyle=orthogonalEdgeStyle;rounded=0;orthogonalLoop=1;jettySize=auto;html=1;entryX=0.5;entryY=0;entryDx=0;entryDy=0;strokeColor=#3333FF;jumpSize=6;strokeWidth=1;" parent="1" source="80" target="63" edge="1">
          <mxGeometry relative="1" as="geometry" />
        </mxCell>
        <mxCell id="80" value="&lt;font style=&quot;font-size: 24px;&quot;&gt;self&lt;/font&gt;" style="ellipse;whiteSpace=wrap;html=1;aspect=fixed;" parent="1" vertex="1">
          <mxGeometry x="-780" y="850" width="50" height="50" as="geometry" />
        </mxCell>
        <mxCell id="81" value="" style="edgeStyle=orthogonalEdgeStyle;rounded=0;orthogonalLoop=1;jettySize=auto;html=1;" parent="1" source="82" target="5" edge="1">
          <mxGeometry relative="1" as="geometry" />
        </mxCell>
        <mxCell id="82" value="&lt;font style=&quot;font-size: 24px;&quot;&gt;self&lt;/font&gt;" style="ellipse;whiteSpace=wrap;html=1;aspect=fixed;" parent="1" vertex="1">
          <mxGeometry x="165" y="130" width="50" height="50" as="geometry" />
        </mxCell>
        <mxCell id="83" value="❌" style="text;whiteSpace=wrap;" parent="1" vertex="1">
          <mxGeometry x="-785" y="910" width="20" height="27.5" as="geometry" />
        </mxCell>
        <mxCell id="df_Jr-iMPG1Y2lYx7abm-87" value="" style="rounded=1;whiteSpace=wrap;html=1;" vertex="1" parent="1">
          <mxGeometry x="365" y="550" width="60" height="100" as="geometry" />
        </mxCell>
        <mxCell id="df_Jr-iMPG1Y2lYx7abm-88" style="edgeStyle=orthogonalEdgeStyle;rounded=0;orthogonalLoop=1;jettySize=auto;html=1;entryX=0;entryY=0.5;entryDx=0;entryDy=0;" edge="1" source="df_Jr-iMPG1Y2lYx7abm-89" target="df_Jr-iMPG1Y2lYx7abm-91" parent="1">
          <mxGeometry relative="1" as="geometry" />
        </mxCell>
        <mxCell id="df_Jr-iMPG1Y2lYx7abm-89" value="raw_ptr" style="rounded=1;whiteSpace=wrap;html=1;" vertex="1" parent="1">
          <mxGeometry x="370" y="590" width="50" height="50" as="geometry" />
        </mxCell>
        <mxCell id="df_Jr-iMPG1Y2lYx7abm-90" value="&lt;div&gt;Box&lt;/div&gt;1" style="text;html=1;align=center;verticalAlign=middle;resizable=0;points=[];autosize=1;strokeColor=none;fillColor=none;" vertex="1" parent="1">
          <mxGeometry x="375" y="545" width="40" height="40" as="geometry" />
        </mxCell>
        <mxCell id="df_Jr-iMPG1Y2lYx7abm-91" value="" style="rounded=1;whiteSpace=wrap;html=1;" vertex="1" parent="1">
          <mxGeometry x="475" y="500" width="70" height="160" as="geometry" />
        </mxCell>
        <mxCell id="df_Jr-iMPG1Y2lYx7abm-92" value="" style="rounded=1;whiteSpace=wrap;html=1;" vertex="1" parent="1">
          <mxGeometry x="480" y="560" width="60" height="100" as="geometry" />
        </mxCell>
        <mxCell id="df_Jr-iMPG1Y2lYx7abm-93" style="edgeStyle=orthogonalEdgeStyle;rounded=0;orthogonalLoop=1;jettySize=auto;html=1;entryX=0;entryY=0.5;entryDx=0;entryDy=0;" edge="1" source="df_Jr-iMPG1Y2lYx7abm-94" target="df_Jr-iMPG1Y2lYx7abm-98" parent="1">
          <mxGeometry relative="1" as="geometry" />
        </mxCell>
        <mxCell id="df_Jr-iMPG1Y2lYx7abm-94" value="raw_ptr" style="rounded=1;whiteSpace=wrap;html=1;" vertex="1" parent="1">
          <mxGeometry x="485" y="600" width="50" height="50" as="geometry" />
        </mxCell>
        <mxCell id="df_Jr-iMPG1Y2lYx7abm-95" value="&lt;div&gt;Box&lt;/div&gt;&lt;div&gt;2&lt;br&gt;&lt;/div&gt;" style="text;html=1;align=center;verticalAlign=middle;resizable=0;points=[];autosize=1;strokeColor=none;fillColor=none;" vertex="1" parent="1">
          <mxGeometry x="490" y="555" width="40" height="40" as="geometry" />
        </mxCell>
        <mxCell id="df_Jr-iMPG1Y2lYx7abm-96" value="" style="line;strokeWidth=2;html=1;" vertex="1" parent="1">
          <mxGeometry x="475" y="550" width="70" height="10" as="geometry" />
        </mxCell>
        <mxCell id="df_Jr-iMPG1Y2lYx7abm-97" value="Value" style="text;html=1;strokeColor=none;fillColor=none;align=center;verticalAlign=middle;whiteSpace=wrap;rounded=0;" vertex="1" parent="1">
          <mxGeometry x="480" y="510" width="60" height="30" as="geometry" />
        </mxCell>
        <mxCell id="df_Jr-iMPG1Y2lYx7abm-98" value="" style="rounded=1;whiteSpace=wrap;html=1;" vertex="1" parent="1">
          <mxGeometry x="605" y="500" width="70" height="160" as="geometry" />
        </mxCell>
        <mxCell id="df_Jr-iMPG1Y2lYx7abm-99" value="" style="rounded=1;whiteSpace=wrap;html=1;" vertex="1" parent="1">
          <mxGeometry x="610" y="560" width="60" height="100" as="geometry" />
        </mxCell>
        <mxCell id="df_Jr-iMPG1Y2lYx7abm-100" style="edgeStyle=orthogonalEdgeStyle;rounded=0;orthogonalLoop=1;jettySize=auto;html=1;entryX=0;entryY=0.5;entryDx=0;entryDy=0;" edge="1" source="df_Jr-iMPG1Y2lYx7abm-101" target="df_Jr-iMPG1Y2lYx7abm-105" parent="1">
          <mxGeometry relative="1" as="geometry" />
        </mxCell>
        <mxCell id="df_Jr-iMPG1Y2lYx7abm-101" value="raw_ptr" style="rounded=1;whiteSpace=wrap;html=1;" vertex="1" parent="1">
          <mxGeometry x="615" y="600" width="50" height="50" as="geometry" />
        </mxCell>
        <mxCell id="df_Jr-iMPG1Y2lYx7abm-102" value="&lt;div&gt;Box&lt;/div&gt;&lt;div&gt;3&lt;br&gt;&lt;/div&gt;" style="text;html=1;align=center;verticalAlign=middle;resizable=0;points=[];autosize=1;strokeColor=none;fillColor=none;" vertex="1" parent="1">
          <mxGeometry x="620" y="555" width="40" height="40" as="geometry" />
        </mxCell>
        <mxCell id="df_Jr-iMPG1Y2lYx7abm-103" value="" style="line;strokeWidth=2;html=1;" vertex="1" parent="1">
          <mxGeometry x="605" y="550" width="70" height="10" as="geometry" />
        </mxCell>
        <mxCell id="df_Jr-iMPG1Y2lYx7abm-104" value="Value" style="text;html=1;strokeColor=none;fillColor=none;align=center;verticalAlign=middle;whiteSpace=wrap;rounded=0;" vertex="1" parent="1">
          <mxGeometry x="610" y="510" width="60" height="30" as="geometry" />
        </mxCell>
        <mxCell id="df_Jr-iMPG1Y2lYx7abm-105" value="" style="rounded=1;whiteSpace=wrap;html=1;" vertex="1" parent="1">
          <mxGeometry x="745" y="500" width="70" height="160" as="geometry" />
        </mxCell>
        <mxCell id="df_Jr-iMPG1Y2lYx7abm-106" value="" style="rounded=1;whiteSpace=wrap;html=1;" vertex="1" parent="1">
          <mxGeometry x="750" y="560" width="60" height="100" as="geometry" />
        </mxCell>
        <mxCell id="df_Jr-iMPG1Y2lYx7abm-107" style="edgeStyle=orthogonalEdgeStyle;rounded=0;orthogonalLoop=1;jettySize=auto;html=1;entryX=0;entryY=0.5;entryDx=0;entryDy=0;" edge="1" source="df_Jr-iMPG1Y2lYx7abm-108" target="df_Jr-iMPG1Y2lYx7abm-112" parent="1">
          <mxGeometry relative="1" as="geometry" />
        </mxCell>
        <mxCell id="df_Jr-iMPG1Y2lYx7abm-108" value="raw_ptr" style="rounded=1;whiteSpace=wrap;html=1;" vertex="1" parent="1">
          <mxGeometry x="755" y="600" width="50" height="50" as="geometry" />
        </mxCell>
        <mxCell id="df_Jr-iMPG1Y2lYx7abm-109" value="&lt;div&gt;Box&lt;/div&gt;&lt;div&gt;4&lt;br&gt;&lt;/div&gt;" style="text;html=1;align=center;verticalAlign=middle;resizable=0;points=[];autosize=1;strokeColor=none;fillColor=none;" vertex="1" parent="1">
          <mxGeometry x="760" y="555" width="40" height="40" as="geometry" />
        </mxCell>
        <mxCell id="df_Jr-iMPG1Y2lYx7abm-110" value="" style="line;strokeWidth=2;html=1;" vertex="1" parent="1">
          <mxGeometry x="745" y="550" width="70" height="10" as="geometry" />
        </mxCell>
        <mxCell id="df_Jr-iMPG1Y2lYx7abm-111" value="Value" style="text;html=1;strokeColor=none;fillColor=none;align=center;verticalAlign=middle;whiteSpace=wrap;rounded=0;" vertex="1" parent="1">
          <mxGeometry x="750" y="510" width="60" height="30" as="geometry" />
        </mxCell>
        <mxCell id="df_Jr-iMPG1Y2lYx7abm-112" value="" style="rounded=1;whiteSpace=wrap;html=1;" vertex="1" parent="1">
          <mxGeometry x="885" y="500" width="70" height="160" as="geometry" />
        </mxCell>
        <mxCell id="df_Jr-iMPG1Y2lYx7abm-113" value="" style="rounded=1;whiteSpace=wrap;html=1;" vertex="1" parent="1">
          <mxGeometry x="890" y="560" width="60" height="100" as="geometry" />
        </mxCell>
        <mxCell id="df_Jr-iMPG1Y2lYx7abm-114" style="edgeStyle=orthogonalEdgeStyle;rounded=0;orthogonalLoop=1;jettySize=auto;html=1;entryX=0;entryY=0.5;entryDx=0;entryDy=0;" edge="1" source="df_Jr-iMPG1Y2lYx7abm-115" target="df_Jr-iMPG1Y2lYx7abm-119" parent="1">
          <mxGeometry relative="1" as="geometry" />
        </mxCell>
        <mxCell id="df_Jr-iMPG1Y2lYx7abm-115" value="raw_ptr" style="rounded=1;whiteSpace=wrap;html=1;" vertex="1" parent="1">
          <mxGeometry x="895" y="600" width="50" height="50" as="geometry" />
        </mxCell>
        <mxCell id="df_Jr-iMPG1Y2lYx7abm-116" value="&lt;div&gt;Box&lt;/div&gt;&lt;div&gt;5&lt;br&gt;&lt;/div&gt;" style="text;html=1;align=center;verticalAlign=middle;resizable=0;points=[];autosize=1;strokeColor=none;fillColor=none;" vertex="1" parent="1">
          <mxGeometry x="900" y="555" width="40" height="40" as="geometry" />
        </mxCell>
        <mxCell id="df_Jr-iMPG1Y2lYx7abm-117" value="" style="line;strokeWidth=2;html=1;" vertex="1" parent="1">
          <mxGeometry x="885" y="550" width="70" height="10" as="geometry" />
        </mxCell>
        <mxCell id="df_Jr-iMPG1Y2lYx7abm-118" value="Value" style="text;html=1;strokeColor=none;fillColor=none;align=center;verticalAlign=middle;whiteSpace=wrap;rounded=0;" vertex="1" parent="1">
          <mxGeometry x="890" y="510" width="60" height="30" as="geometry" />
        </mxCell>
        <mxCell id="df_Jr-iMPG1Y2lYx7abm-119" value="Empty" style="rounded=1;whiteSpace=wrap;html=1;" vertex="1" parent="1">
          <mxGeometry x="1025" y="525" width="60" height="110" as="geometry" />
        </mxCell>
        <mxCell id="df_Jr-iMPG1Y2lYx7abm-120" value="" style="edgeStyle=orthogonalEdgeStyle;rounded=0;orthogonalLoop=1;jettySize=auto;html=1;" edge="1" source="df_Jr-iMPG1Y2lYx7abm-121" target="df_Jr-iMPG1Y2lYx7abm-90" parent="1">
          <mxGeometry relative="1" as="geometry" />
        </mxCell>
        <mxCell id="df_Jr-iMPG1Y2lYx7abm-121" value="current" style="ellipse;whiteSpace=wrap;html=1;aspect=fixed;" vertex="1" parent="1">
          <mxGeometry x="370" y="430" width="50" height="50" as="geometry" />
        </mxCell>
        <mxCell id="df_Jr-iMPG1Y2lYx7abm-124" value="Empty" style="rounded=1;whiteSpace=wrap;html=1;" vertex="1" parent="1">
          <mxGeometry x="270" y="550" width="60" height="100" as="geometry" />
        </mxCell>
        <mxCell id="df_Jr-iMPG1Y2lYx7abm-130" style="edgeStyle=orthogonalEdgeStyle;rounded=0;orthogonalLoop=1;jettySize=auto;html=1;entryX=0.513;entryY=0.033;entryDx=0;entryDy=0;entryPerimeter=0;" edge="1" parent="1" source="df_Jr-iMPG1Y2lYx7abm-125" target="df_Jr-iMPG1Y2lYx7abm-128">
          <mxGeometry relative="1" as="geometry" />
        </mxCell>
        <mxCell id="df_Jr-iMPG1Y2lYx7abm-125" value="prev" style="ellipse;whiteSpace=wrap;html=1;aspect=fixed;" vertex="1" parent="1">
          <mxGeometry x="155" y="430" width="50" height="50" as="geometry" />
        </mxCell>
        <mxCell id="df_Jr-iMPG1Y2lYx7abm-126" value="" style="rounded=1;whiteSpace=wrap;html=1;" vertex="1" parent="1">
          <mxGeometry x="150" y="550" width="60" height="100" as="geometry" />
        </mxCell>
        <mxCell id="df_Jr-iMPG1Y2lYx7abm-129" style="edgeStyle=orthogonalEdgeStyle;rounded=0;orthogonalLoop=1;jettySize=auto;html=1;entryX=0;entryY=0.5;entryDx=0;entryDy=0;" edge="1" parent="1" source="df_Jr-iMPG1Y2lYx7abm-127" target="df_Jr-iMPG1Y2lYx7abm-124">
          <mxGeometry relative="1" as="geometry" />
        </mxCell>
        <mxCell id="df_Jr-iMPG1Y2lYx7abm-127" value="raw_ptr" style="rounded=1;whiteSpace=wrap;html=1;" vertex="1" parent="1">
          <mxGeometry x="155" y="590" width="50" height="50" as="geometry" />
        </mxCell>
        <mxCell id="df_Jr-iMPG1Y2lYx7abm-128" value="&lt;div&gt;Box&lt;/div&gt;&lt;div&gt;0&lt;br&gt;&lt;/div&gt;" style="text;html=1;align=center;verticalAlign=middle;resizable=0;points=[];autosize=1;strokeColor=none;fillColor=none;" vertex="1" parent="1">
          <mxGeometry x="160" y="545" width="40" height="40" as="geometry" />
        </mxCell>
        <mxCell id="df_Jr-iMPG1Y2lYx7abm-176" style="edgeStyle=orthogonalEdgeStyle;rounded=0;orthogonalLoop=1;jettySize=auto;html=1;entryX=0;entryY=0.5;entryDx=0;entryDy=0;" edge="1" parent="1" source="df_Jr-iMPG1Y2lYx7abm-175" target="df_Jr-iMPG1Y2lYx7abm-87">
          <mxGeometry relative="1" as="geometry" />
        </mxCell>
        <mxCell id="df_Jr-iMPG1Y2lYx7abm-175" value="&lt;font style=&quot;font-size: 24px;&quot;&gt;self&lt;/font&gt;" style="ellipse;whiteSpace=wrap;html=1;aspect=fixed;" vertex="1" parent="1">
          <mxGeometry x="275" y="420" width="50" height="50" as="geometry" />
        </mxCell>
        <mxCell id="df_Jr-iMPG1Y2lYx7abm-177" value="" style="rounded=1;whiteSpace=wrap;html=1;" vertex="1" parent="1">
          <mxGeometry x="372.5" y="830" width="60" height="100" as="geometry" />
        </mxCell>
        <mxCell id="df_Jr-iMPG1Y2lYx7abm-453" style="edgeStyle=orthogonalEdgeStyle;rounded=0;orthogonalLoop=1;jettySize=auto;html=1;entryX=0;entryY=0.5;entryDx=0;entryDy=0;" edge="1" parent="1" source="df_Jr-iMPG1Y2lYx7abm-179" target="df_Jr-iMPG1Y2lYx7abm-181">
          <mxGeometry relative="1" as="geometry" />
        </mxCell>
        <mxCell id="df_Jr-iMPG1Y2lYx7abm-179" value="raw_ptr" style="rounded=1;whiteSpace=wrap;html=1;" vertex="1" parent="1">
          <mxGeometry x="377.5" y="870" width="50" height="50" as="geometry" />
        </mxCell>
        <mxCell id="df_Jr-iMPG1Y2lYx7abm-180" value="&lt;div&gt;Box&lt;/div&gt;1" style="text;html=1;align=center;verticalAlign=middle;resizable=0;points=[];autosize=1;strokeColor=none;fillColor=none;" vertex="1" parent="1">
          <mxGeometry x="382.5" y="825" width="40" height="40" as="geometry" />
        </mxCell>
        <mxCell id="df_Jr-iMPG1Y2lYx7abm-181" value="" style="rounded=1;whiteSpace=wrap;html=1;" vertex="1" parent="1">
          <mxGeometry x="482.5" y="780" width="70" height="160" as="geometry" />
        </mxCell>
        <mxCell id="df_Jr-iMPG1Y2lYx7abm-182" value="" style="rounded=1;whiteSpace=wrap;html=1;" vertex="1" parent="1">
          <mxGeometry x="487.5" y="840" width="60" height="100" as="geometry" />
        </mxCell>
        <mxCell id="df_Jr-iMPG1Y2lYx7abm-454" style="edgeStyle=orthogonalEdgeStyle;rounded=0;orthogonalLoop=1;jettySize=auto;html=1;entryX=0.5;entryY=1;entryDx=0;entryDy=0;" edge="1" parent="1" source="df_Jr-iMPG1Y2lYx7abm-184" target="df_Jr-iMPG1Y2lYx7abm-214">
          <mxGeometry relative="1" as="geometry">
            <Array as="points">
              <mxPoint x="517.5" y="950" />
              <mxPoint x="307.5" y="950" />
            </Array>
          </mxGeometry>
        </mxCell>
        <mxCell id="df_Jr-iMPG1Y2lYx7abm-184" value="raw_ptr" style="rounded=1;whiteSpace=wrap;html=1;" vertex="1" parent="1">
          <mxGeometry x="492.5" y="880" width="50" height="50" as="geometry" />
        </mxCell>
        <mxCell id="df_Jr-iMPG1Y2lYx7abm-185" value="&lt;div&gt;Box&lt;/div&gt;0" style="text;html=1;align=center;verticalAlign=middle;resizable=0;points=[];autosize=1;strokeColor=none;fillColor=none;" vertex="1" parent="1">
          <mxGeometry x="497.5" y="835" width="40" height="40" as="geometry" />
        </mxCell>
        <mxCell id="df_Jr-iMPG1Y2lYx7abm-186" value="" style="line;strokeWidth=2;html=1;" vertex="1" parent="1">
          <mxGeometry x="482.5" y="830" width="70" height="10" as="geometry" />
        </mxCell>
        <mxCell id="df_Jr-iMPG1Y2lYx7abm-187" value="Value" style="text;html=1;strokeColor=none;fillColor=none;align=center;verticalAlign=middle;whiteSpace=wrap;rounded=0;" vertex="1" parent="1">
          <mxGeometry x="487.5" y="790" width="60" height="30" as="geometry" />
        </mxCell>
        <mxCell id="df_Jr-iMPG1Y2lYx7abm-188" value="" style="rounded=1;whiteSpace=wrap;html=1;" vertex="1" parent="1">
          <mxGeometry x="612.5" y="780" width="70" height="160" as="geometry" />
        </mxCell>
        <mxCell id="df_Jr-iMPG1Y2lYx7abm-189" value="" style="rounded=1;whiteSpace=wrap;html=1;" vertex="1" parent="1">
          <mxGeometry x="617.5" y="840" width="60" height="100" as="geometry" />
        </mxCell>
        <mxCell id="df_Jr-iMPG1Y2lYx7abm-190" style="edgeStyle=orthogonalEdgeStyle;rounded=0;orthogonalLoop=1;jettySize=auto;html=1;entryX=0;entryY=0.5;entryDx=0;entryDy=0;" edge="1" source="df_Jr-iMPG1Y2lYx7abm-191" target="df_Jr-iMPG1Y2lYx7abm-195" parent="1">
          <mxGeometry relative="1" as="geometry" />
        </mxCell>
        <mxCell id="df_Jr-iMPG1Y2lYx7abm-191" value="raw_ptr" style="rounded=1;whiteSpace=wrap;html=1;" vertex="1" parent="1">
          <mxGeometry x="622.5" y="880" width="50" height="50" as="geometry" />
        </mxCell>
        <mxCell id="df_Jr-iMPG1Y2lYx7abm-192" value="&lt;div&gt;Box&lt;/div&gt;&lt;div&gt;3&lt;br&gt;&lt;/div&gt;" style="text;html=1;align=center;verticalAlign=middle;resizable=0;points=[];autosize=1;strokeColor=none;fillColor=none;" vertex="1" parent="1">
          <mxGeometry x="627.5" y="835" width="40" height="40" as="geometry" />
        </mxCell>
        <mxCell id="df_Jr-iMPG1Y2lYx7abm-193" value="" style="line;strokeWidth=2;html=1;" vertex="1" parent="1">
          <mxGeometry x="612.5" y="830" width="70" height="10" as="geometry" />
        </mxCell>
        <mxCell id="df_Jr-iMPG1Y2lYx7abm-194" value="Value" style="text;html=1;strokeColor=none;fillColor=none;align=center;verticalAlign=middle;whiteSpace=wrap;rounded=0;" vertex="1" parent="1">
          <mxGeometry x="617.5" y="790" width="60" height="30" as="geometry" />
        </mxCell>
        <mxCell id="df_Jr-iMPG1Y2lYx7abm-195" value="" style="rounded=1;whiteSpace=wrap;html=1;" vertex="1" parent="1">
          <mxGeometry x="752.5" y="780" width="70" height="160" as="geometry" />
        </mxCell>
        <mxCell id="df_Jr-iMPG1Y2lYx7abm-196" value="" style="rounded=1;whiteSpace=wrap;html=1;" vertex="1" parent="1">
          <mxGeometry x="757.5" y="840" width="60" height="100" as="geometry" />
        </mxCell>
        <mxCell id="df_Jr-iMPG1Y2lYx7abm-197" style="edgeStyle=orthogonalEdgeStyle;rounded=0;orthogonalLoop=1;jettySize=auto;html=1;entryX=0;entryY=0.5;entryDx=0;entryDy=0;" edge="1" source="df_Jr-iMPG1Y2lYx7abm-198" target="df_Jr-iMPG1Y2lYx7abm-202" parent="1">
          <mxGeometry relative="1" as="geometry" />
        </mxCell>
        <mxCell id="df_Jr-iMPG1Y2lYx7abm-198" value="raw_ptr" style="rounded=1;whiteSpace=wrap;html=1;" vertex="1" parent="1">
          <mxGeometry x="762.5" y="880" width="50" height="50" as="geometry" />
        </mxCell>
        <mxCell id="df_Jr-iMPG1Y2lYx7abm-199" value="&lt;div&gt;Box&lt;/div&gt;&lt;div&gt;4&lt;br&gt;&lt;/div&gt;" style="text;html=1;align=center;verticalAlign=middle;resizable=0;points=[];autosize=1;strokeColor=none;fillColor=none;" vertex="1" parent="1">
          <mxGeometry x="767.5" y="835" width="40" height="40" as="geometry" />
        </mxCell>
        <mxCell id="df_Jr-iMPG1Y2lYx7abm-200" value="" style="line;strokeWidth=2;html=1;" vertex="1" parent="1">
          <mxGeometry x="752.5" y="830" width="70" height="10" as="geometry" />
        </mxCell>
        <mxCell id="df_Jr-iMPG1Y2lYx7abm-201" value="Value" style="text;html=1;strokeColor=none;fillColor=none;align=center;verticalAlign=middle;whiteSpace=wrap;rounded=0;" vertex="1" parent="1">
          <mxGeometry x="757.5" y="790" width="60" height="30" as="geometry" />
        </mxCell>
        <mxCell id="df_Jr-iMPG1Y2lYx7abm-202" value="" style="rounded=1;whiteSpace=wrap;html=1;" vertex="1" parent="1">
          <mxGeometry x="892.5" y="780" width="70" height="160" as="geometry" />
        </mxCell>
        <mxCell id="df_Jr-iMPG1Y2lYx7abm-203" value="" style="rounded=1;whiteSpace=wrap;html=1;" vertex="1" parent="1">
          <mxGeometry x="897.5" y="840" width="60" height="100" as="geometry" />
        </mxCell>
        <mxCell id="df_Jr-iMPG1Y2lYx7abm-204" style="edgeStyle=orthogonalEdgeStyle;rounded=0;orthogonalLoop=1;jettySize=auto;html=1;entryX=0;entryY=0.5;entryDx=0;entryDy=0;" edge="1" source="df_Jr-iMPG1Y2lYx7abm-205" target="df_Jr-iMPG1Y2lYx7abm-209" parent="1">
          <mxGeometry relative="1" as="geometry" />
        </mxCell>
        <mxCell id="df_Jr-iMPG1Y2lYx7abm-205" value="raw_ptr" style="rounded=1;whiteSpace=wrap;html=1;" vertex="1" parent="1">
          <mxGeometry x="902.5" y="880" width="50" height="50" as="geometry" />
        </mxCell>
        <mxCell id="df_Jr-iMPG1Y2lYx7abm-206" value="&lt;div&gt;Box&lt;/div&gt;&lt;div&gt;5&lt;br&gt;&lt;/div&gt;" style="text;html=1;align=center;verticalAlign=middle;resizable=0;points=[];autosize=1;strokeColor=none;fillColor=none;" vertex="1" parent="1">
          <mxGeometry x="907.5" y="835" width="40" height="40" as="geometry" />
        </mxCell>
        <mxCell id="df_Jr-iMPG1Y2lYx7abm-207" value="" style="line;strokeWidth=2;html=1;" vertex="1" parent="1">
          <mxGeometry x="892.5" y="830" width="70" height="10" as="geometry" />
        </mxCell>
        <mxCell id="df_Jr-iMPG1Y2lYx7abm-208" value="Value" style="text;html=1;strokeColor=none;fillColor=none;align=center;verticalAlign=middle;whiteSpace=wrap;rounded=0;" vertex="1" parent="1">
          <mxGeometry x="897.5" y="790" width="60" height="30" as="geometry" />
        </mxCell>
        <mxCell id="df_Jr-iMPG1Y2lYx7abm-209" value="Empty" style="rounded=1;whiteSpace=wrap;html=1;" vertex="1" parent="1">
          <mxGeometry x="1032.5" y="805" width="60" height="110" as="geometry" />
        </mxCell>
        <mxCell id="df_Jr-iMPG1Y2lYx7abm-210" value="" style="edgeStyle=orthogonalEdgeStyle;rounded=0;orthogonalLoop=1;jettySize=auto;html=1;" edge="1" source="df_Jr-iMPG1Y2lYx7abm-211" target="df_Jr-iMPG1Y2lYx7abm-180" parent="1">
          <mxGeometry relative="1" as="geometry" />
        </mxCell>
        <mxCell id="df_Jr-iMPG1Y2lYx7abm-211" value="prev" style="ellipse;whiteSpace=wrap;html=1;aspect=fixed;" vertex="1" parent="1">
          <mxGeometry x="377.5" y="710" width="50" height="50" as="geometry" />
        </mxCell>
        <mxCell id="df_Jr-iMPG1Y2lYx7abm-459" style="edgeStyle=orthogonalEdgeStyle;rounded=0;orthogonalLoop=1;jettySize=auto;html=1;entryX=0;entryY=0.5;entryDx=0;entryDy=0;" edge="1" parent="1" source="df_Jr-iMPG1Y2lYx7abm-213" target="df_Jr-iMPG1Y2lYx7abm-217">
          <mxGeometry relative="1" as="geometry" />
        </mxCell>
        <mxCell id="df_Jr-iMPG1Y2lYx7abm-213" value="current" style="ellipse;whiteSpace=wrap;html=1;aspect=fixed;" vertex="1" parent="1">
          <mxGeometry x="42.5" y="855" width="50" height="50" as="geometry" />
        </mxCell>
        <mxCell id="df_Jr-iMPG1Y2lYx7abm-214" value="Empty" style="rounded=1;whiteSpace=wrap;html=1;" vertex="1" parent="1">
          <mxGeometry x="277.5" y="830" width="60" height="100" as="geometry" />
        </mxCell>
        <mxCell id="df_Jr-iMPG1Y2lYx7abm-217" value="" style="rounded=1;whiteSpace=wrap;html=1;" vertex="1" parent="1">
          <mxGeometry x="157.5" y="830" width="60" height="100" as="geometry" />
        </mxCell>
        <mxCell id="df_Jr-iMPG1Y2lYx7abm-458" style="edgeStyle=orthogonalEdgeStyle;rounded=0;orthogonalLoop=1;jettySize=auto;html=1;entryX=0.5;entryY=1;entryDx=0;entryDy=0;" edge="1" parent="1" source="df_Jr-iMPG1Y2lYx7abm-219" target="df_Jr-iMPG1Y2lYx7abm-189">
          <mxGeometry relative="1" as="geometry">
            <Array as="points">
              <mxPoint x="187.5" y="980" />
              <mxPoint x="647.5" y="980" />
            </Array>
          </mxGeometry>
        </mxCell>
        <mxCell id="df_Jr-iMPG1Y2lYx7abm-219" value="raw_ptr" style="rounded=1;whiteSpace=wrap;html=1;" vertex="1" parent="1">
          <mxGeometry x="162.5" y="870" width="50" height="50" as="geometry" />
        </mxCell>
        <mxCell id="df_Jr-iMPG1Y2lYx7abm-221" style="edgeStyle=orthogonalEdgeStyle;rounded=0;orthogonalLoop=1;jettySize=auto;html=1;entryX=0;entryY=0.5;entryDx=0;entryDy=0;" edge="1" source="df_Jr-iMPG1Y2lYx7abm-222" target="df_Jr-iMPG1Y2lYx7abm-177" parent="1">
          <mxGeometry relative="1" as="geometry" />
        </mxCell>
        <mxCell id="df_Jr-iMPG1Y2lYx7abm-222" value="&lt;font style=&quot;font-size: 24px;&quot;&gt;self&lt;/font&gt;" style="ellipse;whiteSpace=wrap;html=1;aspect=fixed;" vertex="1" parent="1">
          <mxGeometry x="282.5" y="700" width="50" height="50" as="geometry" />
        </mxCell>
        <mxCell id="df_Jr-iMPG1Y2lYx7abm-231" value="&lt;div&gt;Box&lt;/div&gt;2" style="text;html=1;align=center;verticalAlign=middle;resizable=0;points=[];autosize=1;strokeColor=none;fillColor=none;" vertex="1" parent="1">
          <mxGeometry x="167.5" y="825" width="40" height="40" as="geometry" />
        </mxCell>
        <mxCell id="df_Jr-iMPG1Y2lYx7abm-279" value="初始化" style="shape=document;whiteSpace=wrap;html=1;boundedLbl=1;" vertex="1" parent="1">
          <mxGeometry x="92.5" y="370" width="120" height="80" as="geometry" />
        </mxCell>
        <mxCell id="df_Jr-iMPG1Y2lYx7abm-280" value="&lt;div&gt;第一次迭代&lt;/div&gt;&lt;div&gt;0 2&lt;br&gt;&lt;/div&gt;交换" style="shape=document;whiteSpace=wrap;html=1;boundedLbl=1;" vertex="1" parent="1">
          <mxGeometry x="112.5" y="700" width="120" height="80" as="geometry" />
        </mxCell>
        <mxCell id="df_Jr-iMPG1Y2lYx7abm-460" value="" style="rounded=1;whiteSpace=wrap;html=1;" vertex="1" parent="1">
          <mxGeometry x="360" y="1200" width="60" height="100" as="geometry" />
        </mxCell>
        <mxCell id="df_Jr-iMPG1Y2lYx7abm-506" style="edgeStyle=orthogonalEdgeStyle;rounded=0;orthogonalLoop=1;jettySize=auto;html=1;entryX=0.5;entryY=1;entryDx=0;entryDy=0;" edge="1" parent="1" source="df_Jr-iMPG1Y2lYx7abm-462" target="df_Jr-iMPG1Y2lYx7abm-479">
          <mxGeometry relative="1" as="geometry">
            <Array as="points">
              <mxPoint x="390" y="1390" />
              <mxPoint x="775" y="1390" />
            </Array>
          </mxGeometry>
        </mxCell>
        <mxCell id="df_Jr-iMPG1Y2lYx7abm-462" value="raw_ptr" style="rounded=1;whiteSpace=wrap;html=1;" vertex="1" parent="1">
          <mxGeometry x="365" y="1240" width="50" height="50" as="geometry" />
        </mxCell>
        <mxCell id="df_Jr-iMPG1Y2lYx7abm-463" value="&lt;div&gt;Box&lt;/div&gt;3" style="text;html=1;align=center;verticalAlign=middle;resizable=0;points=[];autosize=1;strokeColor=none;fillColor=none;" vertex="1" parent="1">
          <mxGeometry x="370" y="1195" width="40" height="40" as="geometry" />
        </mxCell>
        <mxCell id="df_Jr-iMPG1Y2lYx7abm-464" value="" style="rounded=1;whiteSpace=wrap;html=1;" vertex="1" parent="1">
          <mxGeometry x="470" y="1150" width="70" height="160" as="geometry" />
        </mxCell>
        <mxCell id="df_Jr-iMPG1Y2lYx7abm-465" value="" style="rounded=1;whiteSpace=wrap;html=1;" vertex="1" parent="1">
          <mxGeometry x="475" y="1210" width="60" height="100" as="geometry" />
        </mxCell>
        <mxCell id="df_Jr-iMPG1Y2lYx7abm-466" style="edgeStyle=orthogonalEdgeStyle;rounded=0;orthogonalLoop=1;jettySize=auto;html=1;entryX=0.5;entryY=1;entryDx=0;entryDy=0;" edge="1" source="df_Jr-iMPG1Y2lYx7abm-467" target="df_Jr-iMPG1Y2lYx7abm-497" parent="1">
          <mxGeometry relative="1" as="geometry">
            <Array as="points">
              <mxPoint x="505" y="1320" />
              <mxPoint x="295" y="1320" />
            </Array>
          </mxGeometry>
        </mxCell>
        <mxCell id="df_Jr-iMPG1Y2lYx7abm-467" value="raw_ptr" style="rounded=1;whiteSpace=wrap;html=1;" vertex="1" parent="1">
          <mxGeometry x="480" y="1250" width="50" height="50" as="geometry" />
        </mxCell>
        <mxCell id="df_Jr-iMPG1Y2lYx7abm-468" value="&lt;div&gt;Box&lt;/div&gt;0" style="text;html=1;align=center;verticalAlign=middle;resizable=0;points=[];autosize=1;strokeColor=none;fillColor=none;" vertex="1" parent="1">
          <mxGeometry x="485" y="1205" width="40" height="40" as="geometry" />
        </mxCell>
        <mxCell id="df_Jr-iMPG1Y2lYx7abm-469" value="" style="line;strokeWidth=2;html=1;" vertex="1" parent="1">
          <mxGeometry x="470" y="1200" width="70" height="10" as="geometry" />
        </mxCell>
        <mxCell id="df_Jr-iMPG1Y2lYx7abm-470" value="Value" style="text;html=1;strokeColor=none;fillColor=none;align=center;verticalAlign=middle;whiteSpace=wrap;rounded=0;" vertex="1" parent="1">
          <mxGeometry x="475" y="1160" width="60" height="30" as="geometry" />
        </mxCell>
        <mxCell id="df_Jr-iMPG1Y2lYx7abm-471" value="" style="rounded=1;whiteSpace=wrap;html=1;" vertex="1" parent="1">
          <mxGeometry x="600" y="1150" width="70" height="160" as="geometry" />
        </mxCell>
        <mxCell id="df_Jr-iMPG1Y2lYx7abm-472" value="" style="rounded=1;whiteSpace=wrap;html=1;" vertex="1" parent="1">
          <mxGeometry x="605" y="1210" width="60" height="100" as="geometry" />
        </mxCell>
        <mxCell id="df_Jr-iMPG1Y2lYx7abm-507" style="edgeStyle=orthogonalEdgeStyle;rounded=0;orthogonalLoop=1;jettySize=auto;html=1;entryX=1;entryY=0.5;entryDx=0;entryDy=0;" edge="1" parent="1" source="df_Jr-iMPG1Y2lYx7abm-474" target="df_Jr-iMPG1Y2lYx7abm-464">
          <mxGeometry relative="1" as="geometry" />
        </mxCell>
        <mxCell id="df_Jr-iMPG1Y2lYx7abm-474" value="raw_ptr" style="rounded=1;whiteSpace=wrap;html=1;" vertex="1" parent="1">
          <mxGeometry x="610" y="1250" width="50" height="50" as="geometry" />
        </mxCell>
        <mxCell id="df_Jr-iMPG1Y2lYx7abm-475" value="&lt;div&gt;Box&lt;/div&gt;&lt;div&gt;1&lt;br&gt;&lt;/div&gt;" style="text;html=1;align=center;verticalAlign=middle;resizable=0;points=[];autosize=1;strokeColor=none;fillColor=none;" vertex="1" parent="1">
          <mxGeometry x="615" y="1205" width="40" height="40" as="geometry" />
        </mxCell>
        <mxCell id="df_Jr-iMPG1Y2lYx7abm-476" value="" style="line;strokeWidth=2;html=1;" vertex="1" parent="1">
          <mxGeometry x="600" y="1200" width="70" height="10" as="geometry" />
        </mxCell>
        <mxCell id="df_Jr-iMPG1Y2lYx7abm-477" value="Value" style="text;html=1;strokeColor=none;fillColor=none;align=center;verticalAlign=middle;whiteSpace=wrap;rounded=0;" vertex="1" parent="1">
          <mxGeometry x="605" y="1160" width="60" height="30" as="geometry" />
        </mxCell>
        <mxCell id="df_Jr-iMPG1Y2lYx7abm-478" value="" style="rounded=1;whiteSpace=wrap;html=1;" vertex="1" parent="1">
          <mxGeometry x="740" y="1150" width="70" height="160" as="geometry" />
        </mxCell>
        <mxCell id="df_Jr-iMPG1Y2lYx7abm-479" value="" style="rounded=1;whiteSpace=wrap;html=1;" vertex="1" parent="1">
          <mxGeometry x="745" y="1210" width="60" height="100" as="geometry" />
        </mxCell>
        <mxCell id="df_Jr-iMPG1Y2lYx7abm-480" style="edgeStyle=orthogonalEdgeStyle;rounded=0;orthogonalLoop=1;jettySize=auto;html=1;entryX=0;entryY=0.5;entryDx=0;entryDy=0;" edge="1" source="df_Jr-iMPG1Y2lYx7abm-481" target="df_Jr-iMPG1Y2lYx7abm-485" parent="1">
          <mxGeometry relative="1" as="geometry" />
        </mxCell>
        <mxCell id="df_Jr-iMPG1Y2lYx7abm-481" value="raw_ptr" style="rounded=1;whiteSpace=wrap;html=1;" vertex="1" parent="1">
          <mxGeometry x="750" y="1250" width="50" height="50" as="geometry" />
        </mxCell>
        <mxCell id="df_Jr-iMPG1Y2lYx7abm-482" value="&lt;div&gt;Box&lt;/div&gt;&lt;div&gt;4&lt;br&gt;&lt;/div&gt;" style="text;html=1;align=center;verticalAlign=middle;resizable=0;points=[];autosize=1;strokeColor=none;fillColor=none;" vertex="1" parent="1">
          <mxGeometry x="755" y="1205" width="40" height="40" as="geometry" />
        </mxCell>
        <mxCell id="df_Jr-iMPG1Y2lYx7abm-483" value="" style="line;strokeWidth=2;html=1;" vertex="1" parent="1">
          <mxGeometry x="740" y="1200" width="70" height="10" as="geometry" />
        </mxCell>
        <mxCell id="df_Jr-iMPG1Y2lYx7abm-484" value="Value" style="text;html=1;strokeColor=none;fillColor=none;align=center;verticalAlign=middle;whiteSpace=wrap;rounded=0;" vertex="1" parent="1">
          <mxGeometry x="745" y="1160" width="60" height="30" as="geometry" />
        </mxCell>
        <mxCell id="df_Jr-iMPG1Y2lYx7abm-485" value="" style="rounded=1;whiteSpace=wrap;html=1;" vertex="1" parent="1">
          <mxGeometry x="880" y="1150" width="70" height="160" as="geometry" />
        </mxCell>
        <mxCell id="df_Jr-iMPG1Y2lYx7abm-486" value="" style="rounded=1;whiteSpace=wrap;html=1;" vertex="1" parent="1">
          <mxGeometry x="885" y="1210" width="60" height="100" as="geometry" />
        </mxCell>
        <mxCell id="df_Jr-iMPG1Y2lYx7abm-487" style="edgeStyle=orthogonalEdgeStyle;rounded=0;orthogonalLoop=1;jettySize=auto;html=1;entryX=0;entryY=0.5;entryDx=0;entryDy=0;" edge="1" source="df_Jr-iMPG1Y2lYx7abm-488" target="df_Jr-iMPG1Y2lYx7abm-492" parent="1">
          <mxGeometry relative="1" as="geometry" />
        </mxCell>
        <mxCell id="df_Jr-iMPG1Y2lYx7abm-488" value="raw_ptr" style="rounded=1;whiteSpace=wrap;html=1;" vertex="1" parent="1">
          <mxGeometry x="890" y="1250" width="50" height="50" as="geometry" />
        </mxCell>
        <mxCell id="df_Jr-iMPG1Y2lYx7abm-489" value="&lt;div&gt;Box&lt;/div&gt;&lt;div&gt;5&lt;br&gt;&lt;/div&gt;" style="text;html=1;align=center;verticalAlign=middle;resizable=0;points=[];autosize=1;strokeColor=none;fillColor=none;" vertex="1" parent="1">
          <mxGeometry x="895" y="1205" width="40" height="40" as="geometry" />
        </mxCell>
        <mxCell id="df_Jr-iMPG1Y2lYx7abm-490" value="" style="line;strokeWidth=2;html=1;" vertex="1" parent="1">
          <mxGeometry x="880" y="1200" width="70" height="10" as="geometry" />
        </mxCell>
        <mxCell id="df_Jr-iMPG1Y2lYx7abm-491" value="Value" style="text;html=1;strokeColor=none;fillColor=none;align=center;verticalAlign=middle;whiteSpace=wrap;rounded=0;" vertex="1" parent="1">
          <mxGeometry x="885" y="1160" width="60" height="30" as="geometry" />
        </mxCell>
        <mxCell id="df_Jr-iMPG1Y2lYx7abm-492" value="Empty" style="rounded=1;whiteSpace=wrap;html=1;" vertex="1" parent="1">
          <mxGeometry x="1020" y="1175" width="60" height="110" as="geometry" />
        </mxCell>
        <mxCell id="df_Jr-iMPG1Y2lYx7abm-493" value="" style="edgeStyle=orthogonalEdgeStyle;rounded=0;orthogonalLoop=1;jettySize=auto;html=1;" edge="1" source="df_Jr-iMPG1Y2lYx7abm-494" target="df_Jr-iMPG1Y2lYx7abm-463" parent="1">
          <mxGeometry relative="1" as="geometry" />
        </mxCell>
        <mxCell id="df_Jr-iMPG1Y2lYx7abm-494" value="current" style="ellipse;whiteSpace=wrap;html=1;aspect=fixed;" vertex="1" parent="1">
          <mxGeometry x="365" y="1050" width="50" height="50" as="geometry" />
        </mxCell>
        <mxCell id="df_Jr-iMPG1Y2lYx7abm-495" style="edgeStyle=orthogonalEdgeStyle;rounded=0;orthogonalLoop=1;jettySize=auto;html=1;entryX=0;entryY=0.5;entryDx=0;entryDy=0;" edge="1" source="df_Jr-iMPG1Y2lYx7abm-496" target="df_Jr-iMPG1Y2lYx7abm-498" parent="1">
          <mxGeometry relative="1" as="geometry" />
        </mxCell>
        <mxCell id="df_Jr-iMPG1Y2lYx7abm-496" value="prev" style="ellipse;whiteSpace=wrap;html=1;aspect=fixed;" vertex="1" parent="1">
          <mxGeometry x="30" y="1225" width="50" height="50" as="geometry" />
        </mxCell>
        <mxCell id="df_Jr-iMPG1Y2lYx7abm-497" value="Empty" style="rounded=1;whiteSpace=wrap;html=1;" vertex="1" parent="1">
          <mxGeometry x="265" y="1200" width="60" height="100" as="geometry" />
        </mxCell>
        <mxCell id="df_Jr-iMPG1Y2lYx7abm-498" value="" style="rounded=1;whiteSpace=wrap;html=1;" vertex="1" parent="1">
          <mxGeometry x="145" y="1200" width="60" height="100" as="geometry" />
        </mxCell>
        <mxCell id="df_Jr-iMPG1Y2lYx7abm-499" style="edgeStyle=orthogonalEdgeStyle;rounded=0;orthogonalLoop=1;jettySize=auto;html=1;entryX=0.5;entryY=1;entryDx=0;entryDy=0;" edge="1" source="df_Jr-iMPG1Y2lYx7abm-500" target="df_Jr-iMPG1Y2lYx7abm-472" parent="1">
          <mxGeometry relative="1" as="geometry">
            <Array as="points">
              <mxPoint x="175" y="1350" />
              <mxPoint x="635" y="1350" />
            </Array>
          </mxGeometry>
        </mxCell>
        <mxCell id="df_Jr-iMPG1Y2lYx7abm-500" value="raw_ptr" style="rounded=1;whiteSpace=wrap;html=1;" vertex="1" parent="1">
          <mxGeometry x="150" y="1240" width="50" height="50" as="geometry" />
        </mxCell>
        <mxCell id="df_Jr-iMPG1Y2lYx7abm-501" style="edgeStyle=orthogonalEdgeStyle;rounded=0;orthogonalLoop=1;jettySize=auto;html=1;entryX=0;entryY=0.5;entryDx=0;entryDy=0;" edge="1" source="df_Jr-iMPG1Y2lYx7abm-502" target="df_Jr-iMPG1Y2lYx7abm-460" parent="1">
          <mxGeometry relative="1" as="geometry" />
        </mxCell>
        <mxCell id="df_Jr-iMPG1Y2lYx7abm-502" value="&lt;font style=&quot;font-size: 24px;&quot;&gt;self&lt;/font&gt;" style="ellipse;whiteSpace=wrap;html=1;aspect=fixed;" vertex="1" parent="1">
          <mxGeometry x="270" y="1070" width="50" height="50" as="geometry" />
        </mxCell>
        <mxCell id="df_Jr-iMPG1Y2lYx7abm-503" value="&lt;div&gt;Box&lt;/div&gt;2" style="text;html=1;align=center;verticalAlign=middle;resizable=0;points=[];autosize=1;strokeColor=none;fillColor=none;" vertex="1" parent="1">
          <mxGeometry x="155" y="1195" width="40" height="40" as="geometry" />
        </mxCell>
        <mxCell id="df_Jr-iMPG1Y2lYx7abm-504" value="&lt;div&gt;第二次迭代&lt;/div&gt;&lt;div&gt;1 3&lt;/div&gt;&lt;div&gt;交换&lt;br&gt;&lt;/div&gt;" style="shape=document;whiteSpace=wrap;html=1;boundedLbl=1;" vertex="1" parent="1">
          <mxGeometry x="100" y="1070" width="120" height="80" as="geometry" />
        </mxCell>
        <mxCell id="df_Jr-iMPG1Y2lYx7abm-508" value="" style="rounded=1;whiteSpace=wrap;html=1;" vertex="1" parent="1">
          <mxGeometry x="350" y="1630" width="60" height="100" as="geometry" />
        </mxCell>
        <mxCell id="df_Jr-iMPG1Y2lYx7abm-509" style="edgeStyle=orthogonalEdgeStyle;rounded=0;orthogonalLoop=1;jettySize=auto;html=1;entryX=0.5;entryY=1;entryDx=0;entryDy=0;" edge="1" source="df_Jr-iMPG1Y2lYx7abm-510" target="df_Jr-iMPG1Y2lYx7abm-527" parent="1">
          <mxGeometry relative="1" as="geometry">
            <Array as="points">
              <mxPoint x="380" y="1780" />
              <mxPoint x="765" y="1780" />
            </Array>
          </mxGeometry>
        </mxCell>
        <mxCell id="df_Jr-iMPG1Y2lYx7abm-510" value="raw_ptr" style="rounded=1;whiteSpace=wrap;html=1;" vertex="1" parent="1">
          <mxGeometry x="355" y="1670" width="50" height="50" as="geometry" />
        </mxCell>
        <mxCell id="df_Jr-iMPG1Y2lYx7abm-511" value="&lt;div&gt;Box&lt;/div&gt;3" style="text;html=1;align=center;verticalAlign=middle;resizable=0;points=[];autosize=1;strokeColor=none;fillColor=none;" vertex="1" parent="1">
          <mxGeometry x="360" y="1625" width="40" height="40" as="geometry" />
        </mxCell>
        <mxCell id="df_Jr-iMPG1Y2lYx7abm-512" value="" style="rounded=1;whiteSpace=wrap;html=1;" vertex="1" parent="1">
          <mxGeometry x="460" y="1580" width="70" height="160" as="geometry" />
        </mxCell>
        <mxCell id="df_Jr-iMPG1Y2lYx7abm-513" value="" style="rounded=1;whiteSpace=wrap;html=1;" vertex="1" parent="1">
          <mxGeometry x="465" y="1640" width="60" height="100" as="geometry" />
        </mxCell>
        <mxCell id="df_Jr-iMPG1Y2lYx7abm-514" style="edgeStyle=orthogonalEdgeStyle;rounded=0;orthogonalLoop=1;jettySize=auto;html=1;entryX=0.5;entryY=1;entryDx=0;entryDy=0;" edge="1" source="df_Jr-iMPG1Y2lYx7abm-515" target="df_Jr-iMPG1Y2lYx7abm-545" parent="1">
          <mxGeometry relative="1" as="geometry">
            <Array as="points">
              <mxPoint x="495" y="1750" />
              <mxPoint x="285" y="1750" />
            </Array>
          </mxGeometry>
        </mxCell>
        <mxCell id="df_Jr-iMPG1Y2lYx7abm-515" value="raw_ptr" style="rounded=1;whiteSpace=wrap;html=1;" vertex="1" parent="1">
          <mxGeometry x="470" y="1680" width="50" height="50" as="geometry" />
        </mxCell>
        <mxCell id="df_Jr-iMPG1Y2lYx7abm-516" value="&lt;div&gt;Box&lt;/div&gt;0" style="text;html=1;align=center;verticalAlign=middle;resizable=0;points=[];autosize=1;strokeColor=none;fillColor=none;" vertex="1" parent="1">
          <mxGeometry x="475" y="1635" width="40" height="40" as="geometry" />
        </mxCell>
        <mxCell id="df_Jr-iMPG1Y2lYx7abm-517" value="" style="line;strokeWidth=2;html=1;" vertex="1" parent="1">
          <mxGeometry x="460" y="1630" width="70" height="10" as="geometry" />
        </mxCell>
        <mxCell id="df_Jr-iMPG1Y2lYx7abm-518" value="Value" style="text;html=1;strokeColor=none;fillColor=none;align=center;verticalAlign=middle;whiteSpace=wrap;rounded=0;" vertex="1" parent="1">
          <mxGeometry x="465" y="1590" width="60" height="30" as="geometry" />
        </mxCell>
        <mxCell id="df_Jr-iMPG1Y2lYx7abm-519" value="" style="rounded=1;whiteSpace=wrap;html=1;" vertex="1" parent="1">
          <mxGeometry x="590" y="1580" width="70" height="160" as="geometry" />
        </mxCell>
        <mxCell id="df_Jr-iMPG1Y2lYx7abm-520" value="" style="rounded=1;whiteSpace=wrap;html=1;" vertex="1" parent="1">
          <mxGeometry x="595" y="1640" width="60" height="100" as="geometry" />
        </mxCell>
        <mxCell id="df_Jr-iMPG1Y2lYx7abm-521" style="edgeStyle=orthogonalEdgeStyle;rounded=0;orthogonalLoop=1;jettySize=auto;html=1;entryX=1;entryY=0.5;entryDx=0;entryDy=0;" edge="1" source="df_Jr-iMPG1Y2lYx7abm-522" target="df_Jr-iMPG1Y2lYx7abm-512" parent="1">
          <mxGeometry relative="1" as="geometry" />
        </mxCell>
        <mxCell id="df_Jr-iMPG1Y2lYx7abm-522" value="raw_ptr" style="rounded=1;whiteSpace=wrap;html=1;" vertex="1" parent="1">
          <mxGeometry x="600" y="1680" width="50" height="50" as="geometry" />
        </mxCell>
        <mxCell id="df_Jr-iMPG1Y2lYx7abm-523" value="&lt;div&gt;Box&lt;/div&gt;&lt;div&gt;1&lt;br&gt;&lt;/div&gt;" style="text;html=1;align=center;verticalAlign=middle;resizable=0;points=[];autosize=1;strokeColor=none;fillColor=none;" vertex="1" parent="1">
          <mxGeometry x="605" y="1635" width="40" height="40" as="geometry" />
        </mxCell>
        <mxCell id="df_Jr-iMPG1Y2lYx7abm-524" value="" style="line;strokeWidth=2;html=1;" vertex="1" parent="1">
          <mxGeometry x="590" y="1630" width="70" height="10" as="geometry" />
        </mxCell>
        <mxCell id="df_Jr-iMPG1Y2lYx7abm-525" value="Value" style="text;html=1;strokeColor=none;fillColor=none;align=center;verticalAlign=middle;whiteSpace=wrap;rounded=0;" vertex="1" parent="1">
          <mxGeometry x="595" y="1590" width="60" height="30" as="geometry" />
        </mxCell>
        <mxCell id="df_Jr-iMPG1Y2lYx7abm-526" value="" style="rounded=1;whiteSpace=wrap;html=1;" vertex="1" parent="1">
          <mxGeometry x="730" y="1580" width="70" height="160" as="geometry" />
        </mxCell>
        <mxCell id="df_Jr-iMPG1Y2lYx7abm-527" value="" style="rounded=1;whiteSpace=wrap;html=1;" vertex="1" parent="1">
          <mxGeometry x="735" y="1640" width="60" height="100" as="geometry" />
        </mxCell>
        <mxCell id="df_Jr-iMPG1Y2lYx7abm-553" style="edgeStyle=orthogonalEdgeStyle;rounded=0;orthogonalLoop=1;jettySize=auto;html=1;entryX=1.029;entryY=0.544;entryDx=0;entryDy=0;entryPerimeter=0;" edge="1" parent="1" source="df_Jr-iMPG1Y2lYx7abm-529" target="df_Jr-iMPG1Y2lYx7abm-519">
          <mxGeometry relative="1" as="geometry" />
        </mxCell>
        <mxCell id="df_Jr-iMPG1Y2lYx7abm-529" value="raw_ptr" style="rounded=1;whiteSpace=wrap;html=1;" vertex="1" parent="1">
          <mxGeometry x="740" y="1680" width="50" height="50" as="geometry" />
        </mxCell>
        <mxCell id="df_Jr-iMPG1Y2lYx7abm-530" value="&lt;div&gt;Box&lt;/div&gt;&lt;div&gt;2&lt;br&gt;&lt;/div&gt;" style="text;html=1;align=center;verticalAlign=middle;resizable=0;points=[];autosize=1;strokeColor=none;fillColor=none;" vertex="1" parent="1">
          <mxGeometry x="745" y="1635" width="40" height="40" as="geometry" />
        </mxCell>
        <mxCell id="df_Jr-iMPG1Y2lYx7abm-531" value="" style="line;strokeWidth=2;html=1;" vertex="1" parent="1">
          <mxGeometry x="730" y="1630" width="70" height="10" as="geometry" />
        </mxCell>
        <mxCell id="df_Jr-iMPG1Y2lYx7abm-532" value="Value" style="text;html=1;strokeColor=none;fillColor=none;align=center;verticalAlign=middle;whiteSpace=wrap;rounded=0;" vertex="1" parent="1">
          <mxGeometry x="735" y="1590" width="60" height="30" as="geometry" />
        </mxCell>
        <mxCell id="df_Jr-iMPG1Y2lYx7abm-533" value="" style="rounded=1;whiteSpace=wrap;html=1;" vertex="1" parent="1">
          <mxGeometry x="870" y="1580" width="70" height="160" as="geometry" />
        </mxCell>
        <mxCell id="df_Jr-iMPG1Y2lYx7abm-534" value="" style="rounded=1;whiteSpace=wrap;html=1;" vertex="1" parent="1">
          <mxGeometry x="875" y="1640" width="60" height="100" as="geometry" />
        </mxCell>
        <mxCell id="df_Jr-iMPG1Y2lYx7abm-535" style="edgeStyle=orthogonalEdgeStyle;rounded=0;orthogonalLoop=1;jettySize=auto;html=1;entryX=0;entryY=0.5;entryDx=0;entryDy=0;" edge="1" source="df_Jr-iMPG1Y2lYx7abm-536" target="df_Jr-iMPG1Y2lYx7abm-540" parent="1">
          <mxGeometry relative="1" as="geometry" />
        </mxCell>
        <mxCell id="df_Jr-iMPG1Y2lYx7abm-536" value="raw_ptr" style="rounded=1;whiteSpace=wrap;html=1;" vertex="1" parent="1">
          <mxGeometry x="880" y="1680" width="50" height="50" as="geometry" />
        </mxCell>
        <mxCell id="df_Jr-iMPG1Y2lYx7abm-537" value="&lt;div&gt;Box&lt;/div&gt;&lt;div&gt;5&lt;br&gt;&lt;/div&gt;" style="text;html=1;align=center;verticalAlign=middle;resizable=0;points=[];autosize=1;strokeColor=none;fillColor=none;" vertex="1" parent="1">
          <mxGeometry x="885" y="1635" width="40" height="40" as="geometry" />
        </mxCell>
        <mxCell id="df_Jr-iMPG1Y2lYx7abm-538" value="" style="line;strokeWidth=2;html=1;" vertex="1" parent="1">
          <mxGeometry x="870" y="1630" width="70" height="10" as="geometry" />
        </mxCell>
        <mxCell id="df_Jr-iMPG1Y2lYx7abm-539" value="Value" style="text;html=1;strokeColor=none;fillColor=none;align=center;verticalAlign=middle;whiteSpace=wrap;rounded=0;" vertex="1" parent="1">
          <mxGeometry x="875" y="1590" width="60" height="30" as="geometry" />
        </mxCell>
        <mxCell id="df_Jr-iMPG1Y2lYx7abm-540" value="Empty" style="rounded=1;whiteSpace=wrap;html=1;" vertex="1" parent="1">
          <mxGeometry x="1010" y="1605" width="60" height="110" as="geometry" />
        </mxCell>
        <mxCell id="df_Jr-iMPG1Y2lYx7abm-541" value="" style="edgeStyle=orthogonalEdgeStyle;rounded=0;orthogonalLoop=1;jettySize=auto;html=1;" edge="1" source="df_Jr-iMPG1Y2lYx7abm-542" target="df_Jr-iMPG1Y2lYx7abm-511" parent="1">
          <mxGeometry relative="1" as="geometry" />
        </mxCell>
        <mxCell id="df_Jr-iMPG1Y2lYx7abm-542" value="prev" style="ellipse;whiteSpace=wrap;html=1;aspect=fixed;" vertex="1" parent="1">
          <mxGeometry x="355" y="1480" width="50" height="50" as="geometry" />
        </mxCell>
        <mxCell id="df_Jr-iMPG1Y2lYx7abm-545" value="Empty" style="rounded=1;whiteSpace=wrap;html=1;" vertex="1" parent="1">
          <mxGeometry x="255" y="1630" width="60" height="100" as="geometry" />
        </mxCell>
        <mxCell id="df_Jr-iMPG1Y2lYx7abm-546" value="" style="rounded=1;whiteSpace=wrap;html=1;" vertex="1" parent="1">
          <mxGeometry x="135" y="1630" width="60" height="100" as="geometry" />
        </mxCell>
        <mxCell id="df_Jr-iMPG1Y2lYx7abm-564" style="edgeStyle=orthogonalEdgeStyle;rounded=0;orthogonalLoop=1;jettySize=auto;html=1;entryX=0.5;entryY=1;entryDx=0;entryDy=0;" edge="1" parent="1" source="df_Jr-iMPG1Y2lYx7abm-548" target="df_Jr-iMPG1Y2lYx7abm-534">
          <mxGeometry relative="1" as="geometry">
            <Array as="points">
              <mxPoint x="165" y="1820" />
              <mxPoint x="905" y="1820" />
            </Array>
          </mxGeometry>
        </mxCell>
        <mxCell id="df_Jr-iMPG1Y2lYx7abm-548" value="raw_ptr" style="rounded=1;whiteSpace=wrap;html=1;" vertex="1" parent="1">
          <mxGeometry x="140" y="1670" width="50" height="50" as="geometry" />
        </mxCell>
        <mxCell id="df_Jr-iMPG1Y2lYx7abm-549" style="edgeStyle=orthogonalEdgeStyle;rounded=0;orthogonalLoop=1;jettySize=auto;html=1;entryX=0;entryY=0.5;entryDx=0;entryDy=0;" edge="1" source="df_Jr-iMPG1Y2lYx7abm-550" target="df_Jr-iMPG1Y2lYx7abm-508" parent="1">
          <mxGeometry relative="1" as="geometry" />
        </mxCell>
        <mxCell id="df_Jr-iMPG1Y2lYx7abm-550" value="&lt;font style=&quot;font-size: 24px;&quot;&gt;self&lt;/font&gt;" style="ellipse;whiteSpace=wrap;html=1;aspect=fixed;" vertex="1" parent="1">
          <mxGeometry x="260" y="1500" width="50" height="50" as="geometry" />
        </mxCell>
        <mxCell id="df_Jr-iMPG1Y2lYx7abm-551" value="&lt;div&gt;Box&lt;/div&gt;4" style="text;html=1;align=center;verticalAlign=middle;resizable=0;points=[];autosize=1;strokeColor=none;fillColor=none;" vertex="1" parent="1">
          <mxGeometry x="145" y="1625" width="40" height="40" as="geometry" />
        </mxCell>
        <mxCell id="df_Jr-iMPG1Y2lYx7abm-552" value="&lt;div&gt;第三次迭代&lt;/div&gt;&lt;div&gt;2 4&lt;br&gt;&lt;/div&gt;&lt;div&gt;交换&lt;br&gt;&lt;/div&gt;" style="shape=document;whiteSpace=wrap;html=1;boundedLbl=1;" vertex="1" parent="1">
          <mxGeometry x="90" y="1500" width="120" height="80" as="geometry" />
        </mxCell>
        <mxCell id="df_Jr-iMPG1Y2lYx7abm-563" style="edgeStyle=orthogonalEdgeStyle;rounded=0;orthogonalLoop=1;jettySize=auto;html=1;entryX=-0.05;entryY=0.6;entryDx=0;entryDy=0;entryPerimeter=0;" edge="1" parent="1" source="df_Jr-iMPG1Y2lYx7abm-558" target="df_Jr-iMPG1Y2lYx7abm-546">
          <mxGeometry relative="1" as="geometry" />
        </mxCell>
        <mxCell id="df_Jr-iMPG1Y2lYx7abm-558" value="current" style="ellipse;whiteSpace=wrap;html=1;aspect=fixed;" vertex="1" parent="1">
          <mxGeometry x="30" y="1665" width="50" height="50" as="geometry" />
        </mxCell>
        <mxCell id="df_Jr-iMPG1Y2lYx7abm-565" value="" style="rounded=1;whiteSpace=wrap;html=1;" vertex="1" parent="1">
          <mxGeometry x="365" y="2120" width="60" height="100" as="geometry" />
        </mxCell>
        <mxCell id="df_Jr-iMPG1Y2lYx7abm-612" style="edgeStyle=orthogonalEdgeStyle;rounded=0;orthogonalLoop=1;jettySize=auto;html=1;entryX=0.5;entryY=1;entryDx=0;entryDy=0;" edge="1" parent="1" source="df_Jr-iMPG1Y2lYx7abm-567" target="df_Jr-iMPG1Y2lYx7abm-597">
          <mxGeometry relative="1" as="geometry">
            <Array as="points">
              <mxPoint x="395" y="2270" />
              <mxPoint x="1055" y="2270" />
            </Array>
          </mxGeometry>
        </mxCell>
        <mxCell id="df_Jr-iMPG1Y2lYx7abm-567" value="raw_ptr" style="rounded=1;whiteSpace=wrap;html=1;" vertex="1" parent="1">
          <mxGeometry x="370" y="2160" width="50" height="50" as="geometry" />
        </mxCell>
        <mxCell id="df_Jr-iMPG1Y2lYx7abm-568" value="&lt;div&gt;Box&lt;/div&gt;5" style="text;html=1;align=center;verticalAlign=middle;resizable=0;points=[];autosize=1;strokeColor=none;fillColor=none;" vertex="1" parent="1">
          <mxGeometry x="375" y="2115" width="40" height="40" as="geometry" />
        </mxCell>
        <mxCell id="df_Jr-iMPG1Y2lYx7abm-569" value="" style="rounded=1;whiteSpace=wrap;html=1;" vertex="1" parent="1">
          <mxGeometry x="475" y="2070" width="70" height="160" as="geometry" />
        </mxCell>
        <mxCell id="df_Jr-iMPG1Y2lYx7abm-570" value="" style="rounded=1;whiteSpace=wrap;html=1;" vertex="1" parent="1">
          <mxGeometry x="480" y="2130" width="60" height="100" as="geometry" />
        </mxCell>
        <mxCell id="df_Jr-iMPG1Y2lYx7abm-571" style="edgeStyle=orthogonalEdgeStyle;rounded=0;orthogonalLoop=1;jettySize=auto;html=1;entryX=0.5;entryY=1;entryDx=0;entryDy=0;" edge="1" source="df_Jr-iMPG1Y2lYx7abm-572" target="df_Jr-iMPG1Y2lYx7abm-600" parent="1">
          <mxGeometry relative="1" as="geometry">
            <Array as="points">
              <mxPoint x="510" y="2240" />
              <mxPoint x="300" y="2240" />
            </Array>
          </mxGeometry>
        </mxCell>
        <mxCell id="df_Jr-iMPG1Y2lYx7abm-572" value="raw_ptr" style="rounded=1;whiteSpace=wrap;html=1;" vertex="1" parent="1">
          <mxGeometry x="485" y="2170" width="50" height="50" as="geometry" />
        </mxCell>
        <mxCell id="df_Jr-iMPG1Y2lYx7abm-573" value="&lt;div&gt;Box&lt;/div&gt;0" style="text;html=1;align=center;verticalAlign=middle;resizable=0;points=[];autosize=1;strokeColor=none;fillColor=none;" vertex="1" parent="1">
          <mxGeometry x="490" y="2125" width="40" height="40" as="geometry" />
        </mxCell>
        <mxCell id="df_Jr-iMPG1Y2lYx7abm-574" value="" style="line;strokeWidth=2;html=1;" vertex="1" parent="1">
          <mxGeometry x="475" y="2120" width="70" height="10" as="geometry" />
        </mxCell>
        <mxCell id="df_Jr-iMPG1Y2lYx7abm-575" value="Value" style="text;html=1;strokeColor=none;fillColor=none;align=center;verticalAlign=middle;whiteSpace=wrap;rounded=0;" vertex="1" parent="1">
          <mxGeometry x="480" y="2080" width="60" height="30" as="geometry" />
        </mxCell>
        <mxCell id="df_Jr-iMPG1Y2lYx7abm-576" value="" style="rounded=1;whiteSpace=wrap;html=1;" vertex="1" parent="1">
          <mxGeometry x="605" y="2070" width="70" height="160" as="geometry" />
        </mxCell>
        <mxCell id="df_Jr-iMPG1Y2lYx7abm-577" value="" style="rounded=1;whiteSpace=wrap;html=1;" vertex="1" parent="1">
          <mxGeometry x="610" y="2130" width="60" height="100" as="geometry" />
        </mxCell>
        <mxCell id="df_Jr-iMPG1Y2lYx7abm-578" style="edgeStyle=orthogonalEdgeStyle;rounded=0;orthogonalLoop=1;jettySize=auto;html=1;entryX=1;entryY=0.5;entryDx=0;entryDy=0;" edge="1" source="df_Jr-iMPG1Y2lYx7abm-579" target="df_Jr-iMPG1Y2lYx7abm-569" parent="1">
          <mxGeometry relative="1" as="geometry" />
        </mxCell>
        <mxCell id="df_Jr-iMPG1Y2lYx7abm-579" value="raw_ptr" style="rounded=1;whiteSpace=wrap;html=1;" vertex="1" parent="1">
          <mxGeometry x="615" y="2170" width="50" height="50" as="geometry" />
        </mxCell>
        <mxCell id="df_Jr-iMPG1Y2lYx7abm-580" value="&lt;div&gt;Box&lt;/div&gt;&lt;div&gt;1&lt;br&gt;&lt;/div&gt;" style="text;html=1;align=center;verticalAlign=middle;resizable=0;points=[];autosize=1;strokeColor=none;fillColor=none;" vertex="1" parent="1">
          <mxGeometry x="620" y="2125" width="40" height="40" as="geometry" />
        </mxCell>
        <mxCell id="df_Jr-iMPG1Y2lYx7abm-581" value="" style="line;strokeWidth=2;html=1;" vertex="1" parent="1">
          <mxGeometry x="605" y="2120" width="70" height="10" as="geometry" />
        </mxCell>
        <mxCell id="df_Jr-iMPG1Y2lYx7abm-582" value="Value" style="text;html=1;strokeColor=none;fillColor=none;align=center;verticalAlign=middle;whiteSpace=wrap;rounded=0;" vertex="1" parent="1">
          <mxGeometry x="610" y="2080" width="60" height="30" as="geometry" />
        </mxCell>
        <mxCell id="df_Jr-iMPG1Y2lYx7abm-583" value="" style="rounded=1;whiteSpace=wrap;html=1;" vertex="1" parent="1">
          <mxGeometry x="745" y="2070" width="70" height="160" as="geometry" />
        </mxCell>
        <mxCell id="df_Jr-iMPG1Y2lYx7abm-584" value="" style="rounded=1;whiteSpace=wrap;html=1;" vertex="1" parent="1">
          <mxGeometry x="750" y="2130" width="60" height="100" as="geometry" />
        </mxCell>
        <mxCell id="df_Jr-iMPG1Y2lYx7abm-585" style="edgeStyle=orthogonalEdgeStyle;rounded=0;orthogonalLoop=1;jettySize=auto;html=1;entryX=1.029;entryY=0.544;entryDx=0;entryDy=0;entryPerimeter=0;" edge="1" source="df_Jr-iMPG1Y2lYx7abm-586" target="df_Jr-iMPG1Y2lYx7abm-576" parent="1">
          <mxGeometry relative="1" as="geometry" />
        </mxCell>
        <mxCell id="df_Jr-iMPG1Y2lYx7abm-586" value="raw_ptr" style="rounded=1;whiteSpace=wrap;html=1;" vertex="1" parent="1">
          <mxGeometry x="755" y="2170" width="50" height="50" as="geometry" />
        </mxCell>
        <mxCell id="df_Jr-iMPG1Y2lYx7abm-587" value="&lt;div&gt;Box&lt;/div&gt;&lt;div&gt;2&lt;br&gt;&lt;/div&gt;" style="text;html=1;align=center;verticalAlign=middle;resizable=0;points=[];autosize=1;strokeColor=none;fillColor=none;" vertex="1" parent="1">
          <mxGeometry x="760" y="2125" width="40" height="40" as="geometry" />
        </mxCell>
        <mxCell id="df_Jr-iMPG1Y2lYx7abm-588" value="" style="line;strokeWidth=2;html=1;" vertex="1" parent="1">
          <mxGeometry x="745" y="2120" width="70" height="10" as="geometry" />
        </mxCell>
        <mxCell id="df_Jr-iMPG1Y2lYx7abm-589" value="Value" style="text;html=1;strokeColor=none;fillColor=none;align=center;verticalAlign=middle;whiteSpace=wrap;rounded=0;" vertex="1" parent="1">
          <mxGeometry x="750" y="2080" width="60" height="30" as="geometry" />
        </mxCell>
        <mxCell id="df_Jr-iMPG1Y2lYx7abm-590" value="" style="rounded=1;whiteSpace=wrap;html=1;" vertex="1" parent="1">
          <mxGeometry x="885" y="2070" width="70" height="160" as="geometry" />
        </mxCell>
        <mxCell id="df_Jr-iMPG1Y2lYx7abm-591" value="" style="rounded=1;whiteSpace=wrap;html=1;" vertex="1" parent="1">
          <mxGeometry x="890" y="2130" width="60" height="100" as="geometry" />
        </mxCell>
        <mxCell id="df_Jr-iMPG1Y2lYx7abm-610" style="edgeStyle=orthogonalEdgeStyle;rounded=0;orthogonalLoop=1;jettySize=auto;html=1;entryX=1;entryY=0.5;entryDx=0;entryDy=0;" edge="1" parent="1" source="df_Jr-iMPG1Y2lYx7abm-593" target="df_Jr-iMPG1Y2lYx7abm-583">
          <mxGeometry relative="1" as="geometry" />
        </mxCell>
        <mxCell id="df_Jr-iMPG1Y2lYx7abm-593" value="raw_ptr" style="rounded=1;whiteSpace=wrap;html=1;" vertex="1" parent="1">
          <mxGeometry x="895" y="2170" width="50" height="50" as="geometry" />
        </mxCell>
        <mxCell id="df_Jr-iMPG1Y2lYx7abm-594" value="&lt;div&gt;Box&lt;/div&gt;&lt;div&gt;3&lt;br&gt;&lt;/div&gt;" style="text;html=1;align=center;verticalAlign=middle;resizable=0;points=[];autosize=1;strokeColor=none;fillColor=none;" vertex="1" parent="1">
          <mxGeometry x="900" y="2125" width="40" height="40" as="geometry" />
        </mxCell>
        <mxCell id="df_Jr-iMPG1Y2lYx7abm-595" value="" style="line;strokeWidth=2;html=1;" vertex="1" parent="1">
          <mxGeometry x="885" y="2120" width="70" height="10" as="geometry" />
        </mxCell>
        <mxCell id="df_Jr-iMPG1Y2lYx7abm-596" value="Value" style="text;html=1;strokeColor=none;fillColor=none;align=center;verticalAlign=middle;whiteSpace=wrap;rounded=0;" vertex="1" parent="1">
          <mxGeometry x="890" y="2080" width="60" height="30" as="geometry" />
        </mxCell>
        <mxCell id="df_Jr-iMPG1Y2lYx7abm-597" value="Empty" style="rounded=1;whiteSpace=wrap;html=1;" vertex="1" parent="1">
          <mxGeometry x="1025" y="2095" width="60" height="110" as="geometry" />
        </mxCell>
        <mxCell id="df_Jr-iMPG1Y2lYx7abm-598" value="" style="edgeStyle=orthogonalEdgeStyle;rounded=0;orthogonalLoop=1;jettySize=auto;html=1;" edge="1" source="df_Jr-iMPG1Y2lYx7abm-599" target="df_Jr-iMPG1Y2lYx7abm-568" parent="1">
          <mxGeometry relative="1" as="geometry" />
        </mxCell>
        <mxCell id="df_Jr-iMPG1Y2lYx7abm-599" value="current" style="ellipse;whiteSpace=wrap;html=1;aspect=fixed;" vertex="1" parent="1">
          <mxGeometry x="370" y="1970" width="50" height="50" as="geometry" />
        </mxCell>
        <mxCell id="df_Jr-iMPG1Y2lYx7abm-600" value="Empty" style="rounded=1;whiteSpace=wrap;html=1;" vertex="1" parent="1">
          <mxGeometry x="270" y="2120" width="60" height="100" as="geometry" />
        </mxCell>
        <mxCell id="df_Jr-iMPG1Y2lYx7abm-601" value="" style="rounded=1;whiteSpace=wrap;html=1;" vertex="1" parent="1">
          <mxGeometry x="150" y="2120" width="60" height="100" as="geometry" />
        </mxCell>
        <mxCell id="df_Jr-iMPG1Y2lYx7abm-602" style="edgeStyle=orthogonalEdgeStyle;rounded=0;orthogonalLoop=1;jettySize=auto;html=1;entryX=0.5;entryY=1;entryDx=0;entryDy=0;" edge="1" source="df_Jr-iMPG1Y2lYx7abm-603" target="df_Jr-iMPG1Y2lYx7abm-591" parent="1">
          <mxGeometry relative="1" as="geometry">
            <Array as="points">
              <mxPoint x="180" y="2310" />
              <mxPoint x="920" y="2310" />
            </Array>
          </mxGeometry>
        </mxCell>
        <mxCell id="df_Jr-iMPG1Y2lYx7abm-603" value="raw_ptr" style="rounded=1;whiteSpace=wrap;html=1;" vertex="1" parent="1">
          <mxGeometry x="155" y="2160" width="50" height="50" as="geometry" />
        </mxCell>
        <mxCell id="df_Jr-iMPG1Y2lYx7abm-604" style="edgeStyle=orthogonalEdgeStyle;rounded=0;orthogonalLoop=1;jettySize=auto;html=1;entryX=0;entryY=0.5;entryDx=0;entryDy=0;" edge="1" source="df_Jr-iMPG1Y2lYx7abm-605" target="df_Jr-iMPG1Y2lYx7abm-565" parent="1">
          <mxGeometry relative="1" as="geometry" />
        </mxCell>
        <mxCell id="df_Jr-iMPG1Y2lYx7abm-605" value="&lt;font style=&quot;font-size: 24px;&quot;&gt;self&lt;/font&gt;" style="ellipse;whiteSpace=wrap;html=1;aspect=fixed;" vertex="1" parent="1">
          <mxGeometry x="275" y="1990" width="50" height="50" as="geometry" />
        </mxCell>
        <mxCell id="df_Jr-iMPG1Y2lYx7abm-606" value="&lt;div&gt;Box&lt;/div&gt;4" style="text;html=1;align=center;verticalAlign=middle;resizable=0;points=[];autosize=1;strokeColor=none;fillColor=none;" vertex="1" parent="1">
          <mxGeometry x="160" y="2115" width="40" height="40" as="geometry" />
        </mxCell>
        <mxCell id="df_Jr-iMPG1Y2lYx7abm-607" value="&lt;div&gt;第四次迭代&lt;/div&gt;&lt;div&gt;3 5&lt;br&gt;&lt;/div&gt;&lt;div&gt;交换&lt;br&gt;&lt;/div&gt;" style="shape=document;whiteSpace=wrap;html=1;boundedLbl=1;" vertex="1" parent="1">
          <mxGeometry x="105" y="1990" width="120" height="80" as="geometry" />
        </mxCell>
        <mxCell id="df_Jr-iMPG1Y2lYx7abm-608" style="edgeStyle=orthogonalEdgeStyle;rounded=0;orthogonalLoop=1;jettySize=auto;html=1;entryX=-0.05;entryY=0.6;entryDx=0;entryDy=0;entryPerimeter=0;" edge="1" source="df_Jr-iMPG1Y2lYx7abm-609" target="df_Jr-iMPG1Y2lYx7abm-601" parent="1">
          <mxGeometry relative="1" as="geometry" />
        </mxCell>
        <mxCell id="df_Jr-iMPG1Y2lYx7abm-609" value="prev" style="ellipse;whiteSpace=wrap;html=1;aspect=fixed;" vertex="1" parent="1">
          <mxGeometry x="45" y="2155" width="50" height="50" as="geometry" />
        </mxCell>
        <mxCell id="df_Jr-iMPG1Y2lYx7abm-613" value="" style="rounded=1;whiteSpace=wrap;html=1;" vertex="1" parent="1">
          <mxGeometry x="365" y="2550" width="60" height="100" as="geometry" />
        </mxCell>
        <mxCell id="df_Jr-iMPG1Y2lYx7abm-614" style="edgeStyle=orthogonalEdgeStyle;rounded=0;orthogonalLoop=1;jettySize=auto;html=1;entryX=0.5;entryY=1;entryDx=0;entryDy=0;" edge="1" source="df_Jr-iMPG1Y2lYx7abm-615" target="df_Jr-iMPG1Y2lYx7abm-645" parent="1">
          <mxGeometry relative="1" as="geometry">
            <Array as="points">
              <mxPoint x="395" y="2700" />
              <mxPoint x="1055" y="2700" />
            </Array>
          </mxGeometry>
        </mxCell>
        <mxCell id="df_Jr-iMPG1Y2lYx7abm-615" value="raw_ptr" style="rounded=1;whiteSpace=wrap;html=1;" vertex="1" parent="1">
          <mxGeometry x="370" y="2590" width="50" height="50" as="geometry" />
        </mxCell>
        <mxCell id="df_Jr-iMPG1Y2lYx7abm-616" value="&lt;div&gt;Box&lt;/div&gt;5" style="text;html=1;align=center;verticalAlign=middle;resizable=0;points=[];autosize=1;strokeColor=none;fillColor=none;" vertex="1" parent="1">
          <mxGeometry x="375" y="2545" width="40" height="40" as="geometry" />
        </mxCell>
        <mxCell id="df_Jr-iMPG1Y2lYx7abm-617" value="" style="rounded=1;whiteSpace=wrap;html=1;" vertex="1" parent="1">
          <mxGeometry x="475" y="2500" width="70" height="160" as="geometry" />
        </mxCell>
        <mxCell id="df_Jr-iMPG1Y2lYx7abm-618" value="" style="rounded=1;whiteSpace=wrap;html=1;" vertex="1" parent="1">
          <mxGeometry x="480" y="2560" width="60" height="100" as="geometry" />
        </mxCell>
        <mxCell id="df_Jr-iMPG1Y2lYx7abm-619" style="edgeStyle=orthogonalEdgeStyle;rounded=0;orthogonalLoop=1;jettySize=auto;html=1;entryX=0.5;entryY=1;entryDx=0;entryDy=0;" edge="1" source="df_Jr-iMPG1Y2lYx7abm-620" target="df_Jr-iMPG1Y2lYx7abm-648" parent="1">
          <mxGeometry relative="1" as="geometry">
            <Array as="points">
              <mxPoint x="510" y="2670" />
              <mxPoint x="300" y="2670" />
            </Array>
          </mxGeometry>
        </mxCell>
        <mxCell id="df_Jr-iMPG1Y2lYx7abm-620" value="raw_ptr" style="rounded=1;whiteSpace=wrap;html=1;" vertex="1" parent="1">
          <mxGeometry x="485" y="2600" width="50" height="50" as="geometry" />
        </mxCell>
        <mxCell id="df_Jr-iMPG1Y2lYx7abm-621" value="&lt;div&gt;Box&lt;/div&gt;0" style="text;html=1;align=center;verticalAlign=middle;resizable=0;points=[];autosize=1;strokeColor=none;fillColor=none;" vertex="1" parent="1">
          <mxGeometry x="490" y="2555" width="40" height="40" as="geometry" />
        </mxCell>
        <mxCell id="df_Jr-iMPG1Y2lYx7abm-622" value="" style="line;strokeWidth=2;html=1;" vertex="1" parent="1">
          <mxGeometry x="475" y="2550" width="70" height="10" as="geometry" />
        </mxCell>
        <mxCell id="df_Jr-iMPG1Y2lYx7abm-623" value="Value" style="text;html=1;strokeColor=none;fillColor=none;align=center;verticalAlign=middle;whiteSpace=wrap;rounded=0;" vertex="1" parent="1">
          <mxGeometry x="480" y="2510" width="60" height="30" as="geometry" />
        </mxCell>
        <mxCell id="df_Jr-iMPG1Y2lYx7abm-624" value="" style="rounded=1;whiteSpace=wrap;html=1;" vertex="1" parent="1">
          <mxGeometry x="605" y="2500" width="70" height="160" as="geometry" />
        </mxCell>
        <mxCell id="df_Jr-iMPG1Y2lYx7abm-625" value="" style="rounded=1;whiteSpace=wrap;html=1;" vertex="1" parent="1">
          <mxGeometry x="610" y="2560" width="60" height="100" as="geometry" />
        </mxCell>
        <mxCell id="df_Jr-iMPG1Y2lYx7abm-626" style="edgeStyle=orthogonalEdgeStyle;rounded=0;orthogonalLoop=1;jettySize=auto;html=1;entryX=1;entryY=0.5;entryDx=0;entryDy=0;" edge="1" source="df_Jr-iMPG1Y2lYx7abm-627" target="df_Jr-iMPG1Y2lYx7abm-617" parent="1">
          <mxGeometry relative="1" as="geometry" />
        </mxCell>
        <mxCell id="df_Jr-iMPG1Y2lYx7abm-627" value="raw_ptr" style="rounded=1;whiteSpace=wrap;html=1;" vertex="1" parent="1">
          <mxGeometry x="615" y="2600" width="50" height="50" as="geometry" />
        </mxCell>
        <mxCell id="df_Jr-iMPG1Y2lYx7abm-628" value="&lt;div&gt;Box&lt;/div&gt;&lt;div&gt;1&lt;br&gt;&lt;/div&gt;" style="text;html=1;align=center;verticalAlign=middle;resizable=0;points=[];autosize=1;strokeColor=none;fillColor=none;" vertex="1" parent="1">
          <mxGeometry x="620" y="2555" width="40" height="40" as="geometry" />
        </mxCell>
        <mxCell id="df_Jr-iMPG1Y2lYx7abm-629" value="" style="line;strokeWidth=2;html=1;" vertex="1" parent="1">
          <mxGeometry x="605" y="2550" width="70" height="10" as="geometry" />
        </mxCell>
        <mxCell id="df_Jr-iMPG1Y2lYx7abm-630" value="Value" style="text;html=1;strokeColor=none;fillColor=none;align=center;verticalAlign=middle;whiteSpace=wrap;rounded=0;" vertex="1" parent="1">
          <mxGeometry x="610" y="2510" width="60" height="30" as="geometry" />
        </mxCell>
        <mxCell id="df_Jr-iMPG1Y2lYx7abm-631" value="" style="rounded=1;whiteSpace=wrap;html=1;" vertex="1" parent="1">
          <mxGeometry x="745" y="2500" width="70" height="160" as="geometry" />
        </mxCell>
        <mxCell id="df_Jr-iMPG1Y2lYx7abm-632" value="" style="rounded=1;whiteSpace=wrap;html=1;" vertex="1" parent="1">
          <mxGeometry x="750" y="2560" width="60" height="100" as="geometry" />
        </mxCell>
        <mxCell id="df_Jr-iMPG1Y2lYx7abm-633" style="edgeStyle=orthogonalEdgeStyle;rounded=0;orthogonalLoop=1;jettySize=auto;html=1;entryX=1.029;entryY=0.544;entryDx=0;entryDy=0;entryPerimeter=0;" edge="1" source="df_Jr-iMPG1Y2lYx7abm-634" target="df_Jr-iMPG1Y2lYx7abm-624" parent="1">
          <mxGeometry relative="1" as="geometry" />
        </mxCell>
        <mxCell id="df_Jr-iMPG1Y2lYx7abm-634" value="raw_ptr" style="rounded=1;whiteSpace=wrap;html=1;" vertex="1" parent="1">
          <mxGeometry x="755" y="2600" width="50" height="50" as="geometry" />
        </mxCell>
        <mxCell id="df_Jr-iMPG1Y2lYx7abm-635" value="&lt;div&gt;Box&lt;/div&gt;&lt;div&gt;2&lt;br&gt;&lt;/div&gt;" style="text;html=1;align=center;verticalAlign=middle;resizable=0;points=[];autosize=1;strokeColor=none;fillColor=none;" vertex="1" parent="1">
          <mxGeometry x="760" y="2555" width="40" height="40" as="geometry" />
        </mxCell>
        <mxCell id="df_Jr-iMPG1Y2lYx7abm-636" value="" style="line;strokeWidth=2;html=1;" vertex="1" parent="1">
          <mxGeometry x="745" y="2550" width="70" height="10" as="geometry" />
        </mxCell>
        <mxCell id="df_Jr-iMPG1Y2lYx7abm-637" value="Value" style="text;html=1;strokeColor=none;fillColor=none;align=center;verticalAlign=middle;whiteSpace=wrap;rounded=0;" vertex="1" parent="1">
          <mxGeometry x="750" y="2510" width="60" height="30" as="geometry" />
        </mxCell>
        <mxCell id="df_Jr-iMPG1Y2lYx7abm-638" value="" style="rounded=1;whiteSpace=wrap;html=1;" vertex="1" parent="1">
          <mxGeometry x="885" y="2500" width="70" height="160" as="geometry" />
        </mxCell>
        <mxCell id="df_Jr-iMPG1Y2lYx7abm-639" value="" style="rounded=1;whiteSpace=wrap;html=1;" vertex="1" parent="1">
          <mxGeometry x="890" y="2560" width="60" height="100" as="geometry" />
        </mxCell>
        <mxCell id="df_Jr-iMPG1Y2lYx7abm-640" style="edgeStyle=orthogonalEdgeStyle;rounded=0;orthogonalLoop=1;jettySize=auto;html=1;entryX=1;entryY=0.5;entryDx=0;entryDy=0;" edge="1" source="df_Jr-iMPG1Y2lYx7abm-641" target="df_Jr-iMPG1Y2lYx7abm-631" parent="1">
          <mxGeometry relative="1" as="geometry" />
        </mxCell>
        <mxCell id="df_Jr-iMPG1Y2lYx7abm-641" value="raw_ptr" style="rounded=1;whiteSpace=wrap;html=1;" vertex="1" parent="1">
          <mxGeometry x="895" y="2600" width="50" height="50" as="geometry" />
        </mxCell>
        <mxCell id="df_Jr-iMPG1Y2lYx7abm-642" value="&lt;div&gt;Box&lt;/div&gt;&lt;div&gt;3&lt;br&gt;&lt;/div&gt;" style="text;html=1;align=center;verticalAlign=middle;resizable=0;points=[];autosize=1;strokeColor=none;fillColor=none;" vertex="1" parent="1">
          <mxGeometry x="900" y="2555" width="40" height="40" as="geometry" />
        </mxCell>
        <mxCell id="df_Jr-iMPG1Y2lYx7abm-643" value="" style="line;strokeWidth=2;html=1;" vertex="1" parent="1">
          <mxGeometry x="885" y="2550" width="70" height="10" as="geometry" />
        </mxCell>
        <mxCell id="df_Jr-iMPG1Y2lYx7abm-644" value="Value" style="text;html=1;strokeColor=none;fillColor=none;align=center;verticalAlign=middle;whiteSpace=wrap;rounded=0;" vertex="1" parent="1">
          <mxGeometry x="890" y="2510" width="60" height="30" as="geometry" />
        </mxCell>
        <mxCell id="df_Jr-iMPG1Y2lYx7abm-645" value="Empty" style="rounded=1;whiteSpace=wrap;html=1;" vertex="1" parent="1">
          <mxGeometry x="1025" y="2525" width="60" height="110" as="geometry" />
        </mxCell>
        <mxCell id="df_Jr-iMPG1Y2lYx7abm-646" value="" style="edgeStyle=orthogonalEdgeStyle;rounded=0;orthogonalLoop=1;jettySize=auto;html=1;" edge="1" source="df_Jr-iMPG1Y2lYx7abm-647" target="df_Jr-iMPG1Y2lYx7abm-616" parent="1">
          <mxGeometry relative="1" as="geometry" />
        </mxCell>
        <mxCell id="df_Jr-iMPG1Y2lYx7abm-647" value="current" style="ellipse;whiteSpace=wrap;html=1;aspect=fixed;" vertex="1" parent="1">
          <mxGeometry x="370" y="2400" width="50" height="50" as="geometry" />
        </mxCell>
        <mxCell id="df_Jr-iMPG1Y2lYx7abm-648" value="Empty" style="rounded=1;whiteSpace=wrap;html=1;" vertex="1" parent="1">
          <mxGeometry x="270" y="2550" width="60" height="100" as="geometry" />
        </mxCell>
        <mxCell id="df_Jr-iMPG1Y2lYx7abm-649" value="" style="rounded=1;whiteSpace=wrap;html=1;" vertex="1" parent="1">
          <mxGeometry x="150" y="2550" width="60" height="100" as="geometry" />
        </mxCell>
        <mxCell id="df_Jr-iMPG1Y2lYx7abm-650" style="edgeStyle=orthogonalEdgeStyle;rounded=0;orthogonalLoop=1;jettySize=auto;html=1;entryX=0.5;entryY=1;entryDx=0;entryDy=0;" edge="1" source="df_Jr-iMPG1Y2lYx7abm-651" target="df_Jr-iMPG1Y2lYx7abm-639" parent="1">
          <mxGeometry relative="1" as="geometry">
            <Array as="points">
              <mxPoint x="180" y="2740" />
              <mxPoint x="920" y="2740" />
            </Array>
          </mxGeometry>
        </mxCell>
        <mxCell id="df_Jr-iMPG1Y2lYx7abm-651" value="raw_ptr" style="rounded=1;whiteSpace=wrap;html=1;" vertex="1" parent="1">
          <mxGeometry x="155" y="2590" width="50" height="50" as="geometry" />
        </mxCell>
        <mxCell id="df_Jr-iMPG1Y2lYx7abm-652" style="edgeStyle=orthogonalEdgeStyle;rounded=0;orthogonalLoop=1;jettySize=auto;html=1;entryX=0;entryY=0.5;entryDx=0;entryDy=0;" edge="1" source="df_Jr-iMPG1Y2lYx7abm-653" target="df_Jr-iMPG1Y2lYx7abm-613" parent="1">
          <mxGeometry relative="1" as="geometry" />
        </mxCell>
        <mxCell id="df_Jr-iMPG1Y2lYx7abm-653" value="prev" style="ellipse;whiteSpace=wrap;html=1;aspect=fixed;" vertex="1" parent="1">
          <mxGeometry x="275" y="2420" width="50" height="50" as="geometry" />
        </mxCell>
        <mxCell id="df_Jr-iMPG1Y2lYx7abm-654" value="&lt;div&gt;Box&lt;/div&gt;4" style="text;html=1;align=center;verticalAlign=middle;resizable=0;points=[];autosize=1;strokeColor=none;fillColor=none;" vertex="1" parent="1">
          <mxGeometry x="160" y="2545" width="40" height="40" as="geometry" />
        </mxCell>
        <mxCell id="df_Jr-iMPG1Y2lYx7abm-655" value="交换Self和prev" style="shape=document;whiteSpace=wrap;html=1;boundedLbl=1;" vertex="1" parent="1">
          <mxGeometry x="105" y="2420" width="120" height="80" as="geometry" />
        </mxCell>
        <mxCell id="df_Jr-iMPG1Y2lYx7abm-656" style="edgeStyle=orthogonalEdgeStyle;rounded=0;orthogonalLoop=1;jettySize=auto;html=1;entryX=-0.05;entryY=0.6;entryDx=0;entryDy=0;entryPerimeter=0;" edge="1" source="df_Jr-iMPG1Y2lYx7abm-657" target="df_Jr-iMPG1Y2lYx7abm-649" parent="1">
          <mxGeometry relative="1" as="geometry" />
        </mxCell>
        <mxCell id="df_Jr-iMPG1Y2lYx7abm-657" value="&lt;font size=&quot;1&quot;&gt;&lt;font style=&quot;font-size: 24px;&quot;&gt;Self&lt;/font&gt;&lt;/font&gt;" style="ellipse;whiteSpace=wrap;html=1;aspect=fixed;" vertex="1" parent="1">
          <mxGeometry x="45" y="2585" width="50" height="50" as="geometry" />
        </mxCell>
      </root>
    </mxGraphModel>
  </diagram>
</mxfile>
